<svg xmlns="http://www.w3.org/2000/svg" viewBox="0 0 32 36.07"><path d="M4 23.07a2 2 0 01-4 0v-9a2 2 0 014 0zm28 0a2 2 0 01-4 0v-9a2 2 0 014 0zm-18 11a2 2 0 01-4 0v-9a2 2 0 014 0zm8 0a2 2 0 01-4 0v-9a2 2 0 014 0z" fill="#7cb342"/><path d="M6 12.07v15a2 2 0 002 2h16a2 2 0 002-2v-15zm10-10c-6 0-9.7 3.6-10 8h20c-.3-4.4-4-8-10-8zm-4 5.6a.94.94 0 01-1-1 1 1 0 012 0 1 1 0 01-1 1zm8 0a.94.94 0 01-1-1 1 1 0 012 0 1 1 0 01-1 1z" fill="#7cb342"/><path d="M20.3 4.57a1.42 1.42 0 01-.6-.2A1 1 0 0119.4 3L21.1.47a1 1 0 011.4-.3 1 1 0 01.3 1.4l-1.7 2.5a.79.79 0 01-.8.5zm-9-.4a.89.89 0 01-.8-.5l-1.3-2.1a1 1 0 01.3-1.4 1 1 0 011.4.3l1.3 2.1A1 1 0 0111.9 4a1.42 1.42 0 01-.6.17z" fill="#7cb342"/></svg>