<svg xmlns="http://www.w3.org/2000/svg" viewBox="0 0 99.28 99.28"><circle cx="49.64" cy="49.64" r="49.64"/><path d="M76.62 49h-9.51l2.59-12h9.13c5.93 0 7.33 2.92 7.33 5.22 0 3.3-2.11 6.78-9.54 6.78zm6 10.31c0 3.26-2.11 6.78-9.54 6.78h-9.51l2.59-12h9.13c5.92.02 7.33 2.96 7.33 5.25zM54.48 38.29H45l2.59-12h9.12c5.93 0 7.34 2.91 7.34 5.22-.05 3.27-2.14 6.78-9.57 6.78zm6.25 11.28c0 3.27-2.11 6.78-9.55 6.78h-9.5l2.59-12h9.13c5.92.01 7.33 2.92 7.33 5.22zM57.2 68.38c0 3.27-2.11 6.77-9.53 6.77h-9.52l2.59-12h9.13c5.92 0 7.33 2.92 7.33 5.23zM29 38.29h-9.46l2.58-12h9.13c5.93 0 7.34 2.91 7.34 5.22 0 3.27-2.12 6.78-9.59 6.78zm6.26 11.28c0 3.27-2.12 6.78-9.54 6.78h-9.49l2.6-12H28c5.88.01 7.29 2.92 7.29 5.22z" fill="#fff"/></svg>