<svg xmlns="http://www.w3.org/2000/svg" xmlns:xlink="http://www.w3.org/1999/xlink" viewBox="0 0 176 176.01"><defs><radialGradient id="a" cx="667.18" cy="117.05" r="84.08" gradientTransform="matrix(1 0 0 -1 -583 165)" gradientUnits="userSpaceOnUse"><stop offset="0" stop-color="#3e2723" stop-opacity=".2"/><stop offset="1" stop-color="#3e2723" stop-opacity="0"/></radialGradient><radialGradient id="i" cx="596.88" cy="124.48" r="78.04" xlink:href="#a"/><radialGradient id="j" cx="670.84" cy="76.86" r="87.87" gradientTransform="matrix(1 0 0 -1 -583 165)" gradientUnits="userSpaceOnUse"><stop offset="0" stop-color="#263238" stop-opacity=".2"/><stop offset="1" stop-color="#263238" stop-opacity="0"/></radialGradient><radialGradient id="k" cx="33.29" cy="140.99" r="176.75" gradientTransform="matrix(1 0 0 -1 -7 165)" gradientUnits="userSpaceOnUse"><stop offset="0" stop-color="#fff" stop-opacity=".1"/><stop offset="1" stop-color="#fff" stop-opacity="0"/></radialGradient><clipPath id="b"><circle cx="88" cy="88" r="88" fill="none"/></clipPath><clipPath id="e"><path fill="none" d="M0 176h83.77l38.88-38.88V108H53.36L0 16.48V176z"/></clipPath><clipPath id="g"><path fill="none" d="M88 48l34.65 60-38.88 68H176V48H88z"/></clipPath><clipPath id="h"><path fill="none" d="M13.97 0v40.34L53.36 108 88 48h88V0H13.97z"/></clipPath><linearGradient id="c" x1="28.34" y1="97.98" x2="80.84" y2="128.65" gradientTransform="matrix(1 0 0 -1 -7 165)" gradientUnits="userSpaceOnUse"><stop offset="0" stop-color="#a52714" stop-opacity=".6"/><stop offset=".66" stop-color="#a52714" stop-opacity="0"/></linearGradient><linearGradient id="d" x1="109.87" y1="8.5" x2="51.54" y2="42.67" gradientTransform="matrix(1 0 0 -1 -7 165)" gradientUnits="userSpaceOnUse"><stop offset="0" stop-color="#055524" stop-opacity=".4"/><stop offset=".33" stop-color="#055524" stop-opacity="0"/></linearGradient><linearGradient id="f" x1="120.85" y1="123.19" x2="135.54" y2="58.87" gradientTransform="matrix(1 0 0 -1 -7 165)" gradientUnits="userSpaceOnUse"><stop offset="0" stop-color="#ea6100" stop-opacity=".3"/><stop offset=".66" stop-color="#ea6100" stop-opacity="0"/></linearGradient></defs><g clip-path="url(#b)"><path d="M14 0v108h39.36L88 48h88V0z" fill="#db4437"/><path d="M14 0v108h39.36L88 48h88V0z" fill="url(#c)"/></g><g clip-path="url(#b)"><path d="M54.31 107.65L14.48 39.34l-.58 1 39.54 67.8z" fill="#3e2723" fill-opacity=".15"/></g><g clip-path="url(#b)"><path d="M0 176h83.77l38.88-38.88V108H53.36L0 16.48z" fill="#0f9d58"/><path d="M0 176h83.77l38.88-38.88V108H53.36L0 16.48z" fill="url(#d)"/></g><g clip-path="url(#b)"><path d="M121.84 109.33l-.83-.48L82.62 176h1.15l38.1-66.64z" fill="#263238" fill-opacity=".15"/></g><g clip-path="url(#b)"><g clip-path="url(#e)"><path d="M88 48l34.65 60-38.88 68H176V48z" fill="#ffcd40"/><path d="M88 48l34.65 60-38.88 68H176V48z" fill="url(#f)"/></g></g><g clip-path="url(#b)"><path d="M88 48l34.65 60-38.88 68H176V48z" fill="#ffcd40"/><path d="M88 48l34.65 60-38.88 68H176V48z" fill="url(#f)"/></g><g clip-path="url(#b)"><g clip-path="url(#g)"><path d="M14 0v108h39.36L88 48h88V0z" fill="#db4437"/><path d="M14 0v108h39.36L88 48h88V0z" fill="url(#c)"/></g></g><g clip-path="url(#b)"><path d="M88 48v21l78.4-21z" fill="url(#a)"/></g><g clip-path="url(#b)"><g clip-path="url(#h)"><path d="M0 176h83.77l38.88-38.88V108H53.36L0 16.48z" fill="#0f9d58"/><path d="M0 176h83.77l38.88-38.88V108H53.36L0 16.48z" fill="url(#d)"/></g></g><g clip-path="url(#b)"><path d="M14 40.45l57.22 57.24L53.36 108z" fill="url(#i)"/></g><g clip-path="url(#b)"><path d="M83.83 175.89l21-78.2L122.65 108z" fill="url(#j)"/></g><g clip-path="url(#b)"><circle cx="88" cy="88" r="40" fill="#f1f1f1"/><circle cx="88" cy="88" r="32" fill="#4285f4"/></g><g clip-path="url(#b)"><path d="M88 47a40 40 0 00-40 40v1a40 40 0 0140-40h88v-1z" fill="#3e2723" fill-opacity=".2"/><path d="M122.6 108a39.94 39.94 0 01-69.21 0L0 16.48v1L53.36 109a39.94 39.94 0 0069.21 0v-1z" fill="#fff" fill-opacity=".1"/><path d="M89 48h-.5a40 40 0 010 79.94h.5a40 40 0 000-80z" style="isolation:isolate" fill="#3e2723" opacity=".1"/><path d="M123 109.33a39.87 39.87 0 003.5-32 39.56 39.56 0 01-3.87 30.67l-38.86 68h1.16L123 109.37z" fill="#fff" fill-opacity=".2"/></g><g clip-path="url(#b)"><path d="M88 1a88 88 0 0188 87.5V88A88 88 0 000 88v.5A88 88 0 0188 1z" fill="#fff" fill-opacity=".2"/><path d="M88 175a88 88 0 0088-87.5v.5A88 88 0 010 88v-.5A88 88 0 0088 175z" fill="#3e2723" fill-opacity=".15"/></g><circle cx="88" cy="88" r="88" fill="url(#k)"/></svg>