<svg viewBox="0 0 24 24" xmlns="http://www.w3.org/2000/svg"><linearGradient gradientUnits="userSpaceOnUse" id="a" x1="6.144" x2="17.68" y1="1.857" y2="21.837"><stop offset=".003" stop-color="#ec5438"/><stop offset=".308" stop-color="#f16b94"/><stop offset=".63" stop-color="#9f3e97"/><stop offset=".759" stop-color="#8679b8"/><stop offset=".876" stop-color="#639fd5"/><stop offset=".958" stop-color="#3bb5e8"/><stop offset="1" stop-color="#19bef0"/></linearGradient><circle cx="12" cy="12" fill="url(#a)" r="12"/><path d="M12 1C5.925 1 1 5.925 1 12s4.925 11 11 11 11-4.925 11-11S18.075 1 12 1zm5 12.455v2.5c0 .852-.61 1.57-1.448 1.71l-.534.088c-.505.081-1.017-.059-1.406-.388S13 16.554 13 16.044c0-.85.609-1.57 1.448-1.71l.94-.156a.73.73 0 00.612-.723v-4.88l-6 .859v7.521c0 .85-.609 1.57-1.448 1.71l-.534.089A1.73 1.73 0 016 17.045c0-.85.609-1.57 1.448-1.71l.94-.156A.732.732 0 009 14.455V6.5a.5.5 0 01.43-.495l7-1.001a.5.5 0 01.57.495v7.956z" fill="#FAFAFA"/><path d="M12 1.25c3.533 0 6.684 1.582 8.77 4.11C18.762 2.7 15.59 1 12 1S5.238 2.7 3.23 5.36A11.316 11.316 0 0112 1.25z" fill="#FFF" opacity=".2"/><path d="M12 22.75a11.316 11.316 0 01-8.77-4.11A10.931 10.931 0 0012 23a10.931 10.931 0 008.77-4.36A11.316 11.316 0 0112 22.75z" fill="#010101" opacity=".1"/><path d="M12 .25c5.321 0 9.838 3.422 11.466 8.2C21.957 3.545 17.391 0 12 0S2.043 3.546.534 8.45A12.106 12.106 0 0112 .25z" fill="#FFF" opacity=".2"/><path d="M12 23.75a12.104 12.104 0 01-11.466-8.2A11.99 11.99 0 0012 24a11.988 11.988 0 0011.466-8.45A12.097 12.097 0 0112 23.75z" fill="#010101" opacity=".1"/><path d="M7.448 15.585l.94-.156A.732.732 0 009 14.705v-.25c0 .36-.258.664-.612.724l-.94.156c-.84.14-1.448.86-1.448 1.71 0 .038.01.075.012.112a1.724 1.724 0 011.436-1.572zM10 14.751v-.046.046zm6.828-9.63a.511.511 0 00-.399-.117l-7 1A.5.5 0 009 6.5v.25a.5.5 0 01.43-.495l7-1.001a.5.5 0 01.57.495v-.25a.501.501 0 00-.172-.378zm-2.38 9.463l.94-.156a.73.73 0 00.612-.723v-.25a.73.73 0 01-.612.723l-.94.156c-.84.14-1.448.86-1.448 1.71 0 .038.01.075.012.112a1.724 1.724 0 011.436-1.572z" fill="#010101" opacity=".1"/><linearGradient gradientUnits="userSpaceOnUse" id="b" x1="1.122" x2="22.878" y1="6.927" y2="17.073"><stop offset="0" stop-color="#fff" stop-opacity=".2"/><stop offset="1" stop-color="#fff" stop-opacity="0"/></linearGradient><circle cx="12" cy="12" fill="url(#b)" r="12"/></svg>