<svg viewBox="0 0 24 24" xmlns="http://www.w3.org/2000/svg"><path d="M17.501 5h-7.5c-.567 0-1.286.245-1.492 1.413C8.483 6.555 6 22.637 6 23c0 .57.43 1 1 1h5.5a.5.5 0 00.494-.418l.93-5.582H15.5C19.636 18 23 14.636 23 10.5 23 7.467 20.533 5 17.501 5z" fill="#009ADA"/><path d="M12.612 23.75h-5.67a.972.972 0 01-.908-.578c.08.478.459.828.967.828h5.5a.5.5 0 00.494-.418l.004-.028a.493.493 0 01-.387.196zM15.501 17.75h-1.534l-.043.25H15.5C19.636 18 23 14.636 23 10.5c0-.042-.005-.083-.006-.125-.068 4.078-3.4 7.375-7.493 7.375z" opacity=".1"/><path d="M15.453 0H5.5c-.693 0-1.276.542-1.485 1.38-.03.12-3.014 18.037-3.015 18.707-.003.192-.008.455.203.67.21.214.507.243.798.243h4.28l1.062-7H12.5c4.695 0 8.513-3.826 8.5-8.524C20.99 2.442 18.486 0 15.452 0z" fill="#273691"/><path d="M5.45.25h10.044c2.405 0 4.474 1.508 5.259 3.622A5.557 5.557 0 0015.453 0H5.5c-.693 0-1.276.542-1.485 1.38a8.314 8.314 0 00-.027.151C4.222.754 4.78.25 5.45.25z" fill="#FFF" opacity=".2"/><path d="M1.87 20.75c-.29 0-.588-.03-.798-.243-.015-.016-.022-.033-.035-.049a.658.658 0 00.167.299c.21.214.507.243.798.243h4.28l.039-.25H1.87z" opacity=".1"/><path d="M7.344 14H12.5c4.44 0 8.09-3.422 8.463-7.767A5.47 5.47 0 0017.501 5h-7.5c-.567 0-1.286.245-1.492 1.413L7.344 14z" opacity=".2"/><linearGradient gradientUnits="userSpaceOnUse" id="a" x1="1.285" x2="21.049" y1="7.131" y2="16.347"><stop offset="0" stop-color="#fff" stop-opacity=".2"/><stop offset="1" stop-color="#fff" stop-opacity="0"/></linearGradient><path d="M20.964 6.233c.022-.25.037-.502.036-.757C20.992 2.442 18.487 0 15.453 0H5.5c-.693 0-1.276.542-1.485 1.38-.03.12-3.014 18.037-3.015 18.707-.003.192-.008.455.203.67.21.214.507.243.798.243h4.28c-.171 1.158-.28 1.924-.28 2 0 .57.43 1 .999 1h5.5a.5.5 0 00.494-.418l.93-5.582H15.5C19.636 18 23 14.636 23 10.5a5.49 5.49 0 00-2.036-4.267z" fill="url(#a)"/></svg>