<svg viewBox="0 0 24 24" xmlns="http://www.w3.org/2000/svg"><path d="M12.527 0C4.757 0 2 4.581 2 8.504c0 2.994 2.347 5.723 3.605 6.347a.496.496 0 00.7-.304l.829-2.746a.497.497 0 00-.117-.49C6.738 11.02 6 10.249 6 8.993c0-3.439 2.408-5.492 6.442-5.492C15.56 3.501 18 5.694 18 8.493c0 2.576-2.071 5.513-3.889 5.513-2.114 0-2.138-1.92-2.14-1.991 1.188-1.127 1.585-3.51 1.585-4.047 0-.317.003-.905-.475-1.36-.424-.401-1.143-.605-2.137-.605-2.477 0-3.138 1.886-3.138 3 0 .843.506 1.963.529 1.993L5.874 21.163c-.027.145-.24 1.459.74 2.654a.497.497 0 00.663.099c.474-.316 1.327-.964 1.71-1.755.446-.92 1.708-4.188 2.421-6.054l.09-.094c.012.01 1.237.994 3.14.994 5.434 0 7.362-4.58 7.362-8.503C22 5.345 20.005 0 12.527 0z" fill="#DA1F32"/><path d="M14.111 14.256C15.93 14.256 18 11.32 18 8.743c0-.04-.005-.078-.006-.118-.069 2.544-2.096 5.381-3.883 5.381-1.717 0-2.05-1.253-2.118-1.767l-.022.026c.002.072.026 1.991 2.14 1.991zM10.944 6.253c.994 0 1.713.204 2.137.606.399.378.46.842.47 1.172 0-.018.005-.048.005-.063 0-.317.003-.905-.475-1.36-.424-.401-1.143-.605-2.137-.605-2.477 0-3.138 1.886-3.138 3 0 .043.006.089.008.132.044-1.124.735-2.882 3.13-2.882z" fill="#FFF" opacity=".2"/><path d="M12.527.25c7.394 0 9.424 5.223 9.469 8.394 0-.047.004-.094.004-.14C22 5.345 20.005 0 12.527 0 4.757 0 2 4.581 2 8.504c0 .027.007.053.008.08C2.086 4.7 4.868.25 12.528.25z" fill="#FFF" opacity=".2"/><path d="M6.306 14.3a.5.5 0 01-.7.304c-1.248-.618-3.557-3.305-3.598-6.267-.002.057-.008.114-.008.17 0 2.994 2.347 5.723 3.605 6.347a.496.496 0 00.7-.304l.829-2.746a.493.493 0 000-.275c-.002.008.002.017 0 .025L6.306 14.3zM14.639 16.757c-1.904 0-3.13-.984-3.141-.994l-.09.094c-.713 1.866-1.975 5.134-2.42 6.054-.384.791-1.237 1.44-1.71 1.755a.499.499 0 01-.665-.1 3.403 3.403 0 01-.773-2.04c-.019.501.063 1.424.773 2.29a.497.497 0 00.664.1c.474-.316 1.327-.964 1.71-1.755.446-.92 1.708-4.188 2.421-6.054l.09-.094c.012.01 1.237.994 3.14.994 5.434 0 7.362-4.58 7.362-8.503 0-.035-.004-.074-.004-.11-.045 3.891-1.988 8.363-7.357 8.363z" fill="#010101" opacity=".1"/><linearGradient gradientUnits="userSpaceOnUse" id="a" x1="1.577" x2="19.665" y1="7.569" y2="16.004"><stop offset="0" stop-color="#fff" stop-opacity=".2"/><stop offset="1" stop-color="#fff" stop-opacity="0"/></linearGradient><path d="M12.527 0C4.757 0 2 4.581 2 8.504c0 2.994 2.347 5.723 3.605 6.347a.496.496 0 00.7-.304l.829-2.746a.497.497 0 00-.117-.49C6.738 11.02 6 10.249 6 8.993c0-3.439 2.408-5.492 6.442-5.492C15.56 3.501 18 5.694 18 8.493c0 2.576-2.071 5.513-3.889 5.513-2.114 0-2.138-1.92-2.14-1.991 1.188-1.127 1.585-3.51 1.585-4.047 0-.317.003-.905-.475-1.36-.424-.401-1.143-.605-2.137-.605-2.477 0-3.138 1.886-3.138 3 0 .843.506 1.963.529 1.993L5.874 21.163c-.027.145-.24 1.459.74 2.654a.497.497 0 00.663.099c.474-.316 1.327-.964 1.71-1.755.446-.92 1.708-4.188 2.421-6.054l.09-.094c.012.01 1.237.994 3.14.994 5.434 0 7.362-4.58 7.362-8.503C22 5.345 20.005 0 12.527 0z" fill="url(#a)"/></svg>