<svg viewBox="0 0 24 24" xmlns="http://www.w3.org/2000/svg"><path d="M23.598 17.516c-2.352-.612-4.151-2.027-5.065-3.972 0 0 .002-.005.006-.008l2.19-1.707c.498-.39.7-1.056.5-1.658a1.503 1.503 0 00-1.697-.999l-1.531.275c.42-2.568-.08-4.847-1.412-6.419C15.482 1.72 13.851 1 12 1c-1.852 0-3.483.72-4.59 2.03-1.332 1.572-1.833 3.852-1.405 6.436-.655-.118-1.528-.284-1.528-.284a1.49 1.49 0 00-1.706.992c-.2.6 0 1.264.5 1.652l2.198 1.707c-.916 1.956-2.715 3.37-5.067 3.983L0 17.621l.03.416c.031.414.187.743.463.98.567.483 1.45.406 2.229.34.327-.029.82-.073.908-.044.379.475.39 1.182.39 1.187v.5h2.493c.55 0 1.25.387 1.99.797C9.524 22.36 10.679 23 12 23s2.477-.64 3.496-1.203c.742-.41 1.441-.797 1.99-.797l2.49-.002.005-.496c0-.007.01-.714.348-1.153.129-.064.623-.02.95.007.777.067 1.661.144 2.228-.34.276-.236.432-.565.463-.979l.03-.416-.402-.105z" fill="#FCEE23"/><path d="M16.59 3.028C15.481 1.72 13.85 1 12 1c-1.852 0-3.483.72-4.59 2.03-1.028 1.213-1.555 2.85-1.548 4.722.04-1.767.566-3.313 1.548-4.473C8.517 1.971 10.148 1.25 12 1.25c1.851 0 3.482.72 4.59 2.028.981 1.16 1.508 2.707 1.55 4.469.004-1.866-.523-3.505-1.55-4.719zM2.77 10.174a1.47 1.47 0 00-.056.591c.01-.114.02-.23.057-.341a1.49 1.49 0 011.706-.992s.873.166 1.528.284c-.014-.087-.02-.17-.031-.256-.651-.118-1.497-.278-1.497-.278a1.49 1.49 0 00-1.706.992zM21.228 10.171a1.503 1.503 0 00-1.696-.999l-1.5.27c-.012.085-.017.168-.031.255l1.531-.275c.733-.135 1.46.29 1.696 1 .038.112.048.227.058.342a1.477 1.477 0 00-.058-.593z" fill="#FFF" opacity=".2"/><path d="M23.97 17.787c-.031.414-.187.743-.463.98-.567.483-1.451.406-2.229.34-.326-.028-.82-.072-.949-.008-.338.439-.348 1.146-.348 1.153l-.004.496-2.49.002c-.55 0-1.25.387-1.99.797-1.02.564-2.175 1.203-3.497 1.203s-2.477-.64-3.496-1.203c-.742-.41-1.441-.797-1.99-.797H4.018V21h2.494c.55 0 1.25.387 1.99.797C9.524 22.36 10.679 23 12 23s2.477-.64 3.496-1.203c.742-.41 1.441-.797 1.99-.797l2.49-.002.005-.496c0-.007.01-.714.348-1.153.129-.064.623-.02.95.007.777.067 1.661.144 2.228-.34.276-.236.432-.565.463-.979l.03-.416-.018-.005-.012.171zM.03 18.037c.031.414.187.743.463.98.567.483 1.45.406 2.229.34.327-.029.82-.073.908-.045.379.476.39 1.183.39 1.188v-.25c0-.005-.011-.712-.39-1.188-.089-.028-.58.016-.908.044-.779.067-1.662.144-2.23-.34-.275-.236-.43-.565-.462-.979l-.012-.17L0 17.62l.03.416z" fill="#010101" opacity=".1"/><linearGradient gradientUnits="userSpaceOnUse" id="a" x1="3.511" x2="24.043" y1="8.563" y2="18.137"><stop offset="0" stop-color="#fff" stop-opacity=".2"/><stop offset="1" stop-color="#fff" stop-opacity="0"/></linearGradient><path d="M23.598 17.516c-2.352-.612-4.151-2.027-5.065-3.972 0 0 .002-.005.006-.008l2.19-1.707c.498-.39.7-1.056.5-1.658a1.503 1.503 0 00-1.697-.999l-1.531.275c.42-2.568-.08-4.847-1.412-6.419C15.482 1.72 13.851 1 12 1c-1.852 0-3.483.72-4.59 2.03-1.332 1.572-1.833 3.852-1.405 6.436-.655-.118-1.528-.284-1.528-.284a1.49 1.49 0 00-1.706.992c-.2.6 0 1.264.5 1.652l2.198 1.707c-.916 1.956-2.715 3.37-5.067 3.983L0 17.621l.03.416c.031.414.187.743.463.98.567.483 1.45.406 2.229.34.327-.029.82-.073.908-.044.379.475.39 1.182.39 1.187v.5h2.493c.55 0 1.25.387 1.99.797C9.524 22.36 10.679 23 12 23s2.477-.64 3.496-1.203c.742-.41 1.441-.797 1.99-.797l2.49-.002.005-.496c0-.007.01-.714.348-1.153.129-.064.623-.02.95.007.777.067 1.661.144 2.228-.34.276-.236.432-.565.463-.979l.03-.416-.402-.105z" fill="url(#a)"/></svg>