<svg viewBox="0 0 24 24" xmlns="http://www.w3.org/2000/svg"><path d="M20.934 3.673l-1.899-.237a56.997 56.997 0 00-14.07 0l-1.9.237A3.506 3.506 0 000 7.147v9.704a3.506 3.506 0 003.066 3.474l1.899.237C7.29 20.852 9.658 21 12 21s4.71-.147 7.035-.438l1.9-.237A3.506 3.506 0 0024 16.85V7.147a3.506 3.506 0 00-3.066-3.474z" fill="#EE3325"/><path d="M20.934 3.675l-1.899-.237a57.004 57.004 0 00-14.07 0l-1.9.237A3.506 3.506 0 000 7.148v.25a3.506 3.506 0 013.066-3.473l1.899-.237a57.004 57.004 0 0114.07 0l1.9.237A3.506 3.506 0 0124 7.398v-.25a3.506 3.506 0 00-3.066-3.473z" fill="#FFF" opacity=".2"/><path d="M20.934 20.073l-1.899.237c-2.326.291-4.693.438-7.035.438s-4.71-.147-7.035-.438l-1.9-.237A3.506 3.506 0 010 16.6v.25a3.506 3.506 0 003.066 3.473l1.899.237c2.326.291 4.693.438 7.035.438s4.71-.147 7.035-.438l1.9-.237A3.506 3.506 0 0024 16.85v-.25a3.506 3.506 0 01-3.066 3.473z" fill="#010101" opacity=".1"/><path fill="#FFF" d="M9.5 7.5v9l7-4.5z"/><linearGradient gradientUnits="userSpaceOnUse" id="a" x1="9" x2="14.75" y1="8" y2="13.75"><stop offset="0" stop-color="#010101" stop-opacity="0"/><stop offset="1" stop-color="#010101" stop-opacity=".1"/></linearGradient><path fill="url(#a)" d="M9.5 7.5V12h7z"/><linearGradient gradientUnits="userSpaceOnUse" id="b" x1="12.375" x2="20.517" y1="13.625" y2="21.767"><stop offset="0" stop-color="#010101" stop-opacity=".1"/><stop offset="1" stop-color="#010101" stop-opacity="0"/></linearGradient><path d="M16.5 12l-7 4.5 4.44 4.44c1.703-.06 3.41-.167 5.095-.378l1.9-.237a3.487 3.487 0 002.418-1.472L16.5 12z" fill="url(#b)"/><linearGradient gradientUnits="userSpaceOnUse" id="c" x1="-.012" x2="24.012" y1="6.398" y2="17.6"><stop offset="0" stop-color="#fff" stop-opacity=".2"/><stop offset="1" stop-color="#fff" stop-opacity="0"/></linearGradient><path d="M20.934 3.673l-1.899-.237a56.997 56.997 0 00-14.07 0l-1.9.237A3.506 3.506 0 000 7.147v9.704a3.506 3.506 0 003.066 3.474l1.899.237C7.29 20.852 9.658 21 12 21s4.71-.147 7.035-.438l1.9-.237A3.506 3.506 0 0024 16.85V7.147a3.506 3.506 0 00-3.066-3.474z" fill="url(#c)"/></svg>