<svg width="1200" height="800" xmlns="http://www.w3.org/2000/svg"><g fill="none" fill-rule="evenodd"><path d="M1010 413.707c11.429 0 15.585-13.683 22.079-21.192 4.645-5.372 12.574-3.77 14.921-11.291 5.902-18.913-9.894-32.224-30.5-32.224S982 360.674 979 378.224s10.394 35.483 31 35.483z" fill="#191847"/><path d="M1041.143 376.134c5.795 10.801 5.107 38.199-2.383 40.13-2.986.77-9.349-1.116-15.824-5.02L1027 440h-24l8.262-38.51c-4.608-5.41-7.726-12.037-7.205-19.465 1.501-21.4 31.292-16.692 37.086-5.891z" fill="#B28B67"/><path d="M1042.583 376.195c-4.59.861-13.834 5.243-21.204 11.529a6.248 6.248 0 00-2.932-.724c-3.4 0-6.157 2.686-6.157 6 0 1.353.46 2.6 1.234 3.604-1.459 2.405-2.454 4.93-2.78 7.528-5.057 0-23.51-19.132-5.127-37.132 18.383-18 44.949 7.696 36.966 9.195z" fill="#191847"/><path fill="#B28B67" d="M995 523l37.63 123.024 18.23 104.624h14.293L1045.891 523z"/><path fill-opacity=".1" fill="#000" d="M995 523l37.63 123.024 18.23 104.624h14.293L1045.891 523z"/><path d="M981.538 523c2.556 67.547-.452 102.389-1.024 108.526-.572 6.137-8.406 45.929-26.95 121.182l15.23-5.23c29.308-69.019 39.295-104.89 42.656-113.952 3.362-9.063 12.29-45.905 26.783-110.526h-56.695z" fill="#B28B67"/><path d="M953.677 747.404c-1.118 2.985-1.677 5.22-1.677 6.702 0 1.803.3 4.434.901 7.894h56.402c1.466-4.845.62-7.461-2.538-7.848a312.366 312.366 0 01-7.87-1.046l-26.215-11.687a1 1 0 00-1.332.532l-1.685 4.088c-2.923 1.364-5.299 2.046-7.126 2.046-1.486 0-3.537-.6-6.155-1.8a2 2 0 00-2.706 1.119zM1047.677 747.404c-1.118 2.985-1.677 5.22-1.677 6.702 0 1.803.3 4.434.901 7.894h56.402c1.466-4.845.62-7.461-2.538-7.848a312.366 312.366 0 01-7.87-1.046l-26.215-11.687a1 1 0 00-1.332.532l-1.685 4.088c-2.923 1.364-5.299 2.046-7.126 2.046-1.486 0-3.537-.6-6.155-1.8a2 2 0 00-2.706 1.119z" fill="#E4E4E4"/><path fill="#69A1AC" d="M990 523l16 62.68h48.87l-7.286-62.68z"/><path d="M981 523c-5.265 15.78-6.265 36.674-3 62.68h49.87l13.714-62.68H981z" fill="#89C5CC"/><g><path d="M957.308 511.02l20.897.082c-10.71 34.573-17.329 55.675-19.858 63.309l-.258.774c-.377 1.124-.637 1.864-.781 2.22-2.314 5.735 2.583 14.469 4.677 19.162-6.82 3.052-6.094-8.25-14.697-4.248-1.745.812-3.397 1.77-5.011 2.709l-.537.312-.534.309-.533.304c-5.05 2.87-9.9 4.98-16.284 1.041-1.115-.688-2.338-3.28.616-5.304 2.23-1.53 4.757-3.406 7.237-5.36l.742-.587c5.428-4.327 10.459-8.897 11.414-10.835 1.954-3.963 6.257-25.26 12.91-63.888zm125.736-3.897l28.328 27.635c8.243 3.515 14.996 7.398 20.26 11.646 1.185 1.428 2.473 4.164-3.097 2.94a149.52 149.52 0 00-1.611-.346l-.644-.132c-4.82-.974-9.37-1.54-10.276.028-1.047 1.811 2.038 4.587.103 6.958-1.29 1.58-5.628-3.447-13.014-15.082l-29.457-17.368 9.408-16.28z" fill="#B28B67"/><path d="M1016.695 423.332l8.647-1.483c14.888 37.19 40.88 70.982 77.976 101.376l-28.032 34.056c-37.092-43.276-59.956-87.926-58.591-133.949z" fill="#191847"/><path d="M979 532h77c-17.84-43.375-26.759-80.221-26.759-110.54l-23.227-3.46c-18.254 29.358-23.41 65.505-27.014 114z" fill="#DDE3E9"/><path d="M1007.048 418c1.814.062 4.577.175 8.29.338l5.612 16.039c.594 19.555 4.06 58.965 10.401 118.229h-50.475c.132 4.093.35 8.224.655 12.394H944c5.614-63.336 26.115-112.336 61.504-147l.018.017.01-.017z" fill="#2F3676"/><path d="M995 553h-14.11c-.619-18.357.488-35.945 3.32-52.765 1.437 25.514 5.033 43.102 10.79 52.765z" fill-opacity=".1" fill="#000"/><path fill-opacity=".2" fill="#FFF" d="M992.11 522l24.89-11.57V522z"/></g><g><path d="M832.143 376.134c5.795 10.801 5.107 38.199-2.383 40.13-2.986.77-9.349-1.116-15.824-5.02L818 440h-24l8.262-38.51c-4.608-5.41-7.726-12.037-7.205-19.465 1.501-21.4 31.292-16.692 37.086-5.891z" fill="#B28B67"/><path d="M819.132 365.62c6.734.578 12.747 2.632 14.451 3.85 0 6.376-1.235 8.268-11.786 8.101-2.592 1.369-4.585 3.726-6.661 6.817.918 12.797 3.348 19.197 7.29 19.197 5.913 0 10.93-3.754 13.524-3.754 1.89 0 1.469 2.367.215 4.121-1.034 1.448-6.071 2.844-6.071 5.088 0 1.154 1.052 1.256 2.075 1.263h.504c.764.002 1.4.044 1.4.576 0 2.202.7 6.342-3.122 6.342-3.867 0-14.956-1.41-16.857-7.15-1.226-3.704-2.019-11.38-2.378-23.027a6 6 0 00-4.908 10.248 90.97 90.97 0 01-4.728 6.12c-6.698-4.02-11.668-15.783-5.12-27.084 1.81-5.536 5.908-8.493 10.747-9.866 3.92-1.64 7.99-1.824 11.425-.841zM786 523l36.255 127.227L848.707 744H868l-28.109-221z" fill="#191847"/><path d="M776.304 523c-.838 65.574-3.698 101.34-4.578 107.298-.88 5.958-14.194 43.858-39.94 113.702h19.987c32.776-67.003 51.073-104.904 54.89-113.702C810.478 621.5 822.258 585.734 840 523h-63.696z" fill="#2F3676"/><path d="M730 762l1-21h21c9.958 7 22.958 12.667 39 17v4h-38l-13-2v2h-10zM846 762l1-21h21c9.958 7 22.958 12.667 39 17v4h-38l-13-2v2h-10z" fill="#191847"/><g><path d="M733.667 495.536l17.712 2.572c-16.92 36.712-26.856 58.03-29.805 63.954l-.188.376c-.266.53-.461.901-.585 1.116-3.09 5.356.544 14.686 1.965 19.625-7.179 2.073-4.886-9.017-13.963-6.251-2.046.623-4.003 1.442-5.914 2.218l-.572.232c-5.613 2.26-10.864 3.95-16.84-1.008-1.01-.837-1.86-3.573 1.347-5.167 7.989-3.972 19.717-11.24 21.54-13.92 2.487-3.652 10.92-24.901 25.303-63.747zM870.36 506.61l30.186 25.592c8.468 2.932 15.476 6.334 21.024 10.205 1.28 1.342 2.757 3.981-2.885 3.148-.434-.064-.87-.127-1.305-.187l-.653-.09c-4.995-.666-9.762-.961-10.574.702-.918 1.88 2.353 4.434.588 6.934-1.176 1.667-5.855-3.046-14.034-14.137l-30.597-15.27 8.25-16.897z" fill="#B28B67"/><path d="M807.695 423.332l10.975-3.63c14.887 37.19 37.09 73.174 74.187 103.568l-9.173 15.827c-32.603-19.205-63.465-34.124-75.989-62.942-4.203-9.672-.343-41.258 0-52.823z" fill="#C5CFD6"/><path d="M770 528c31.438 3.333 56.184 3.333 74.236 0 2.237-.413 2.59-4.158 1.552-6.699-16.152-39.577-27.228-74.11-27.228-101.598-2.963 1.494-8.15 1.718-15.56.671-19.914 28.329-29.067 60.832-33 107.626z" fill="#323337"/><path d="M798.079 417.481l-.03.518 8.3.001c1.912 11.251 7.905 162.199 26.28 214.065l.562 1.541H731.385c2.207-46.119 19.618-101.518 37.255-147.877-15.596 14.27-29.188 38.452-40.778 72.544l-19.07-4.895c14.179-61.096 43.33-106.001 87.452-134.717l.288-.661h.738l.809-.519z" fill="#DDE3E9"/></g></g><g><path d="M624.143 376.134c5.795 10.801 5.107 38.199-2.383 40.13-2.986.77-9.349-1.116-15.824-5.02L610 440h-24l8.262-38.51c-4.608-5.41-7.726-12.037-7.205-19.465 1.501-21.4 31.292-16.692 37.086-5.891z" fill="#B28B67"/><path d="M614.663 364.37c-3.279-1-8.04-1.34-10.042-1.11 1.139-2.73 1.591-5.77 1.223-8.73-.359-2.878-1.644-5.328-2.833-7.895-.548-1.183-1.17-2.36-2.095-3.265-.944-.922-2.138-1.53-3.39-1.82-1.281-.298-2.621-.273-3.904-.003-.568.119-1.077.378-1.634.523-.57.148-.847-.21-1.26-.568-.998-.864-2.46-1.29-3.722-1.443-1.416-.172-2.885.042-4.235.507-1.314.453-2.576 1.19-3.526 2.26-.423.478-.807 1.02-1.057 1.62-.102.246-.12.392-.365.482-.227.084-.492.086-.727.166-2.265.767-4.203 2.518-5.258 4.766-.615 1.31-.907 3.62-.827 6.208.08 2.588 2.417 9.34 4.602 11.803 1.951 2.199 4.819 3.65 7.586 4.284-1.837 2.1-3.06 4.723-3.964 7.392a36.171 36.171 0 00-1.814 8.978c-.213 2.915-.233 5.999.45 8.852.64 2.668 2.007 4.857 4.29 6.245 1.045.636 2.17 1.114 3.302 1.551 1.115.43 2.233.849 3.401 1.09 2.211.457 4.758.379 6.461-1.38.614-.635 1.289-1.432 1.736-2.207.161-.279.259-.461.063-.733-.234-.327-.613-.577-.914-.832-1.717-1.455-2.78-3.398-3.047-5.706-.272-2.342.357-5.366 2.634-6.388 2.811-1.262 5.907.187 8.406 1.537 1.062-3.748 3.242-7.123 6.66-8.842 3.782-1.901 8.122-2.124 12.008-3.756 1.013-.425 2.044-.908 2.79-1.774.312-.362.677-.832.802-1.311.163-.629-.243-1.156-.556-1.647-1.662-2.6-7.964-7.854-11.244-8.854z" fill="#191847"/><path fill="#915B3C" d="M580 523l74.306 124.227 55.709 105.023h11.999L628.674 523z"/><path d="M702.677 747.404c-1.118 2.985-1.677 5.22-1.677 6.702 0 1.803.3 4.434.901 7.894h56.402c1.466-4.845.62-7.461-2.538-7.848a312.366 312.366 0 01-7.87-1.046l-26.215-11.687a1 1 0 00-1.332.532l-1.685 4.088c-2.923 1.364-5.299 2.046-7.126 2.046-1.486 0-3.537-.6-6.155-1.8a2 2 0 00-2.706 1.119z" fill="#E4E4E4"/><path d="M694.543 735.433l23.14-7c-10.138-30.308-22.564-63.661-37.278-100.059C665.692 591.977 649.89 556.852 633 523h-65.356c18.778 42.821 38.685 81.73 59.722 116.725 21.036 34.996 43.429 66.899 67.177 95.708z" fill="#DB2721"/><path d="M575.117 523c-7.014 43.654-20.54 99.427-21.816 101.149-.851 1.147-31.488 11.413-91.911 30.798l2.592 10.58c72.054-10.395 110.02-18.461 113.899-24.196C583.699 632.728 612.748 564.763 624 523h-48.883z" fill="#915B3C"/><path d="M482.63 645.8l4.565 17.042c53.892 4.727 86.913 1.311 99.063-10.246 12.15-11.557 25.997-54.756 41.54-129.596h-62.32c-9.848 61.284-15.354 93.212-16.518 95.785-1.163 2.572-23.273 11.578-66.33 27.015z" fill="#FF4133"/><path d="M464.347 650.538c-3.135-.582-5.432-.745-6.891-.488-1.776.313-4.316 1.066-7.618 2.259l9.794 55.545c5.026.602 7.455-.686 7.288-3.863-.168-3.177-.28-5.82-.336-7.932l6.957-27.846a1 1 0 00-.756-1.219l-4.318-.95c-1.85-2.642-2.935-4.863-3.252-6.663-.258-1.463-.023-3.587.704-6.374a2 2 0 00-1.572-2.47z" fill="#E4E4E4"/><g><path d="M708.514 459.626l-.036.441c-.178 2.363-.122 4.794 2.078 4.34 1.667-.342 4.257-1.717 6.917-3.188l.64-.354.32-.178.638-.355c3.715-2.06 7.234-3.944 8.215-3.084 2.696 2.362.292 9.616-2.54 13.225-5.293 6.745-9.675 9.051-20.508 12.071-5.663 1.58-11.787 4.745-18.37 9.496l-.868-15.3 15.247-8.376c2.139-8.14 4.696-12.236 7.671-12.287 1.052-.49.777 1.426.596 3.549zm-24.2-30.084l-.16.287-.322.576c-2.617 4.71-4.956 9.546-3.612 10.989 1.427 1.53 4.983-.608 6.685 1.935 1.134 1.696-4.942 4.375-18.228 8.036l-25.221 23.093-12.818-13.758 34.71-19.01c5.772-6.854 11.459-12.178 17.061-15.97.193-.08.403-.158.619-.224l.186-.054c1.654-.449 3.494-.148 1.1 4.1z" fill="#997659"/><path d="M613.734 456.465c12.158-.128 28.37-2.696 45.668-13.676l6.794 15.15c-11.932 11.841-28.71 21.57-43.38 21.159-11.56-.325-17.47-14.309-9.082-22.633z" fill="#2026A2"/><path d="M614.544 418c1.53 19.669 9.236 41.345 15.56 62.76 12.907 3.22 34.55-.576 64.932-11.387 7.536 15.59 11.02 26.705 10.45 33.344-26.065 13.616-48.405 19.685-66.81 20.085.593 10.916-.736 21.308-5.202 30.804-9.18 19.518-62.929 1.442-81.001 5-11.318-36.755 10.565-51.692 10.583-75.21.019-25.754 20.698-65.396 23.741-65.396z" fill="#1F28CF"/></g></g><g><path d="M415.143 376.134c5.795 10.801 5.107 38.199-2.383 40.13-2.986.77-9.349-1.116-15.824-5.02L401 440h-24l8.262-38.51c-4.608-5.41-7.726-12.037-7.205-19.465 1.501-21.4 31.292-16.692 37.086-5.891z" fill="#B28B67"/><path d="M401.464 363.685c-3.163-.518-11.68-.875-13.25-.875-1.004 0-2.092.23-2.687-.692-.486-.755-.308-2.031-.453-2.907-.17-1.018-.409-2.022-.651-3.024-.69-2.85-1.733-5.562-3.192-8.108-2.738-4.777-6.75-8.519-11.814-10.696-5.593-2.404-11.921-2.955-17.937-2.467-6.437.522-12.264 2.647-18.342 4.646-5.792 1.906-11.858 2.656-17.916 1.726-6.104-.938-10.715-4.246-15.863-7.386-5.27-3.214-11.293-5.316-17.524-4.833-5.815.451-11.176 2.853-15.985 6.06-4.5 3.002-8.212 6.613-10.308 11.695-2.255 5.467-2.253 11.468 1.455 16.3 5.375 7.003 15.353 8.814 23.654 8.634a45.193 45.193 0 0014.05-2.575c6.046-2.127 11.27-5.73 16.926-8.655 2.654-1.372 5.398-2.5 8.274-3.311 2.79-.788 5.539-1.15 8.065.536 2.673 1.784 5.068 3.536 8.126 4.652 2.934 1.071 6.04 1.67 9.166 1.646 6.08-.047 12.075-1.942 17.98-3.21 4.816-1.035 9.97-2.067 14.88-1.072 2.048.415 5.04 1.272 5.78 3.401-12.454 2.257-17.345 17.66-13.834 28.967 1.895 6.103 13.286 13.237 17.715 10.029 2.806-2.033 1.102-4.701 0-6.463-2.111-3.373-2.834-7.706 1.073-10.055 3.37-2.026 6.913 2.785 6.98 2.78.926-.074 8.928-4.6 14.442-11.204 5.44.323 6.265-3.264 4.966-6.197-1.299-2.933-9.406-6.625-13.776-7.342z" fill="#191847"/><path d="M357.644 523c1.803 24.61 117.963 97.064 118.64 99.096.302.904-11.75 29.464-36.156 85.682l10.154 3.946c37.434-59.539 55.19-92.48 53.267-98.824-2.753-9.083-32.795-38.962-90.127-89.638L357.644 523z" fill="#B28B67"/><path d="M357.644 523c1.803 24.61 117.963 97.064 118.64 99.096.302.904-11.75 29.464-36.156 85.682l10.154 3.946c37.434-59.539 55.19-92.48 53.267-98.824-2.753-9.083-32.795-38.962-90.127-89.638L357.644 523z" fill-opacity=".1" fill="#000"/><path d="M442.8 695.082l16.579 6.035c34.957-39.443 48.66-71.986 46.161-88.568-1.666-11.054-31.604-40.884-89.816-89.489h-59.269c2.022 56.993 109.688 99.253 111.128 101.682 1.44 2.429-12.732 26.215-24.783 70.34z" fill="#2F3676"/><path d="M436.39 705.841c-2.071 2.423-3.36 4.331-3.867 5.724-.617 1.695-1.235 4.27-1.854 7.727l53 19.29c3.035-4.052 3.135-6.8.3-8.242a312.366 312.366 0 01-7.037-3.676l-20.637-19.948a1 1 0 00-1.434.045l-2.981 3.265c-3.214.282-5.68.11-7.397-.515-1.396-.508-3.118-1.774-5.168-3.797a2 2 0 00-2.925.127z" fill="#E4E4E4"/><path fill="#B28B67" d="M371 523l-51.746 124.227-50.858 105.023h11.999L411.674 523z"/><path d="M267.677 747.404c-1.118 2.985-1.677 5.22-1.677 6.702 0 1.803.3 4.434.901 7.894h56.402c1.466-4.845.62-7.461-2.538-7.848a312.366 312.366 0 01-7.87-1.046l-26.215-11.687a1 1 0 00-1.332.532l-1.685 4.088c-2.923 1.364-5.299 2.046-7.126 2.046-1.486 0-3.537-.6-6.155-1.8a2 2 0 00-2.706 1.119z" fill="#E4E4E4"/><path d="M272.989 730.433l26.662 5C320.266 705.125 406.54 580.852 416 523h-59.356c-31.59 41.821-64.005 176.624-83.655 207.433z" fill="#5C63AB"/><g><path d="M314.508 500L335 504.066c-20.608 38.405-31.66 58.76-33.155 61.064-3.365 5.185-.225 14.687.934 19.691-3.44.801-4.612-1.226-5.865-3.344l-.217-.363c-1.342-2.24-2.927-4.406-7.53-3.263a45.665 45.665 0 00-3.358.991l-.597.201-.594.203-.885.307-.586.203c-5.945 2.06-11.442 3.754-17.343-1.685-.963-.888-1.669-3.664 1.616-5.087 2.603-1.129 5.603-2.57 8.545-4.095l.839-.437c5.994-3.15 11.571-6.554 12.848-8.234 2.674-3.516 10.959-23.589 24.856-60.218zm202.68-30.745l-.371.545-.185.273-.368.547c-2.868 4.29-5.351 8.595-4.188 10.085 1.288 1.65 5.017-.17 6.49 2.511.983 1.788-5.304 3.927-18.859 6.417l-27.137 20.806L461 495.617l36.235-15.913c6.347-6.325 12.476-11.132 18.388-14.422 1.767-.563 4.787-.733 1.565 3.973z" fill="#B28B67"/><path d="M390.695 423.332l8.647-1.483c18.834 18.27 26.52 62.163 39.072 67.973 11.867 5.494 28.69.178 48.686-7l6.124 13.683c-18.169 19.656-56.875 36.262-72.564 26.782-25.084-15.157-30.874-69.293-29.965-99.955z" fill="#DB2721"/><path d="M353 532h76.511c3.497 0 2.838-5.048 2.332-7.596-5.832-29.4-28.602-61.092-28.602-102.943L381.171 418c-18.254 29.358-24.566 65.505-28.171 114z" fill="#DDE3E9"/><path d="M388.486 418c19.813 67.537 25.275 112.537 16.386 135H336c1.09-16.438 4.584-33.82 9.37-50.77-15.598 28.137-28.709 48.393-39.333 60.77L290 559.859C300.33 495.79 330.247 448.504 379.748 418z" fill="#FF4133"/></g></g><g><path d="M189.5 363c10.782 0 19.71 7.937 21.262 18.287 3.446 12.7 7.94 41.256 3.355 45.735h-29l-.008-.153C174.36 425.679 166 416.566 166 405.5v-21c0-11.874 9.626-21.5 21.5-21.5h2z" fill="#191847"/><path d="M207.143 376.134c5.795 10.801 5.107 38.199-2.383 40.13-2.986.77-9.349-1.116-15.824-5.02L193 440h-24l8.262-38.51c-4.608-5.41-7.726-12.037-7.205-19.465 1.501-21.4 31.292-16.692 37.086-5.891z" fill="#B28B67"/><path d="M188.001 364c10.294 0 14.325 4.257 17.28 8.417l.274.389.269.388.525.77c-2.328 7.984-11.36 9.168-19.384 14.146a5.5 5.5 0 10-3.215 9.765c1.106 11.878.663 25.442-2.633 28.662h-29c-.791-13.756 2.554-18.161 6.173-22.187l.444-.491c3.634-4.01 7.383-8.004 7.383-20.956.2-.195.397-.39.592-.582l.291-.288.29-.286.286-.281c.454-.444.9-.871 1.345-1.268l-.032-.777C173.91 369.14 180.28 364 188 364z" fill="#191847"/><g><path d="M130.408 621.088c23.99 6.71 44.686 10.065 62.092 10.065 17.405 0 33.572-5.167 48.5-15.5-23.476-6.887-42.81-10.33-58-10.33-15.19 0-32.722 5.255-52.592 15.765z" fill="#1F28CF"/><path d="M213.267 640.824a5.657 5.657 0 01-.582-1.135C209.48 631.209 158.117 539.726 153 523h57.826c3.89 12.717 21.401 92.52 23.865 108.442 7.776 25.115 23.784 106.453 25.828 112.088 2.15 5.928-9.947 12.103-13.17 4.816-5.13-11.596-17.35-43.68-22.792-63.272-5.101-18.366-9.255-34.89-11.29-44.25z" fill="#B28B67"/><path d="M213.267 640.824a5.657 5.657 0 01-.582-1.135C209.48 631.209 158.117 539.726 153 523h57.826c3.89 12.717 21.401 92.52 23.865 108.442 7.776 25.115 23.784 106.453 25.828 112.088 2.15 5.928-9.947 12.103-13.17 4.816-5.13-11.596-17.35-43.68-22.792-63.272-5.101-18.366-9.255-34.89-11.29-44.25z" fill-opacity=".1" fill="#000"/><path d="M165.957 651.994c-23.482 5.934-109.373 16.664-115.267 18.347-6.064 1.73-11.38-10.767-3.885-13.474 11.925-4.308 44.784-14.261 64.707-18.323 16.024-3.267 30.647-5.933 40.464-7.494-.831-27.577-4.633-93.756-2.141-108.05H201c-2.39 13.707-22.59 113.718-26.344 123.729-1.192 3.573-4.747 5.153-8.699 5.265z" fill="#B28B67"/><path d="M47.347 653.538c-3.135-.582-5.432-.745-6.891-.488-1.776.313-4.316 1.066-7.618 2.259l9.794 55.545c5.026.602 7.455-.686 7.288-3.863-.168-3.177-.28-5.82-.336-7.932l6.957-27.846a1 1 0 00-.756-1.219l-4.318-.95c-1.85-2.642-2.935-4.863-3.252-6.663-.258-1.463-.023-3.587.704-6.374a2 2 0 00-1.572-2.47zM243.677 747.404c-1.118 2.985-1.677 5.22-1.677 6.702 0 1.803.3 4.434.901 7.894h56.402c1.466-4.845.62-7.461-2.538-7.848a312.366 312.366 0 01-7.87-1.046l-26.215-11.687a1 1 0 00-1.332.532l-1.685 4.088c-2.923 1.364-5.299 2.046-7.126 2.046-1.486 0-3.537-.6-6.155-1.8a2 2 0 00-2.706 1.119z" fill="#E4E4E4"/><path d="M150 523c22.547-6.45 43.88-6.45 64 0 7 31.937 24.009 44.613 27 93.579-34 16.894-76-12.049-111 4.426-10-23.044 4-78.54 20-98.005z" fill="#2B44FF"/></g><g><path d="M122.97 492.45l21.897.082c-24.01 54.034-36.53 82.325-37.56 84.874-2.313 5.734 2.584 14.468 4.678 19.161-3.042 1.361-4.582-.133-6.119-1.85l-.28-.315c-1.821-2.05-3.764-4.192-8.298-2.083-1.842.857-3.58 1.878-5.28 2.865l-.536.31c-5.342 3.09-10.362 5.647-17.083 1.5-1.115-.688-2.338-3.28.616-5.304 7.357-5.045 17.96-13.875 19.393-16.782 1.954-3.963 11.478-31.45 28.572-82.458zm185.723-19.135l-.25.21-.5.42-.25.21-.497.424c-3.876 3.321-7.326 6.727-6.627 8.472.788 1.969 4.902 1.236 5.584 4.264.454 2.018-6.223 2.346-20.032.984L254.084 501 247 483.31l39.483-5.385c7.898-4.393 15.164-7.367 21.798-8.922l.09-.002h.187c1.86.02 4.345.805.135 4.314z" fill="#997659"/><path d="M182.95 423l17.144 1.142c4.223 38.201 27.222 62.33 78.717 54.162l6.841 49.195c-48.13 6.22-90.339-13.05-98.99-65.22-2.239-13.506-4.007-27.561-3.713-39.279z" fill="#AFB9C5"/><path d="M174.477 418l.014.016 25.977 5.95c0 30.381 6.58 53.284 13.088 75.16l.574 1.928.572 1.924.57 1.92.567 1.917.562 1.917c2.051 7.024 3.993 14.041 5.599 21.268h-70.156c-.989 11.351-1.596 23.018-1.912 35h-52.53c11.903-63.336 37.028-112.336 75.374-147h1.701z" fill="#C5CFD6"/><path d="M162.912 466.26c-1.808 27.84-.744 49.088 3.19 63.74h-14.258c1.914-21.992 5.26-42.799 10.699-62.42z" fill-opacity=".1" fill="#000"/></g></g></g></svg>