<svg xmlns="http://www.w3.org/2000/svg" viewBox="0 0 39.76 39.92"><path d="M36.57 31.35c-9.15 11.88-21.41 8.8-26.23 6.1C3 33.34-2.16 23.77.9 14.2A20.74 20.74 0 014.88 7a40.38 40.38 0 006 0c14-1 18 11 17 14-.51 1.53-2.32 2-4 2.13.16-.22.36-.54.64-1a4.74 4.74 0 00-1.73-6.27 5 5 0 00-6.88 1.28c-1.45 1.92-.88 4.81-.37 6.09 2.2 5.52 6.26 7 9 7.78a16 16 0 009.05-.19c2.18-.91 2.8-1.43 3.22-1s.19.93-.24 1.53z" fill="#1e88e5"/><path d="M36.61 31.35a21.11 21.11 0 01-11.21 7.91h-.08a14.36 14.36 0 01-5.85-.26c-3.09-.6-7.35-4-8.38-10.18a12.51 12.51 0 015.59-12.54 5.74 5.74 0 00-.7.78c-1.45 1.92-.88 4.81-.37 6.09 2.2 5.52 6.26 7 9 7.78a16 16 0 009.05-.19c2.18-.91 2.8-1.43 3.22-1s.12 1.01-.27 1.61z" fill="#0d47a1"/><path d="M22.82.18v.81a11.89 11.89 0 01-4.48 9.32 13.7 13.7 0 00-3.65-1.22c-4.07-.78-10.63 1.1-13.3 5.77A11.49 11.49 0 000 19.41a18.5 18.5 0 01.9-5.21A20 20 0 0122.82.18z" fill="#00e5ff"/><path d="M37.28 23.82c-2.76 2.78-6.27 2.86-8.67 2.73a8.62 8.62 0 01-4.69-1.5c-1.11-.69-.48-1.37-.37-1.52a9.14 9.14 0 001-1.49 4.42 4.42 0 00.54-1.91 23.85 23.85 0 009.16-14.34A21.12 21.12 0 0139 13.4c.92 2.52 1.59 7.09-1.72 10.42z" fill="#00e676"/><path d="M34.25 5.78a23.85 23.85 0 01-9.16 14.34 4.61 4.61 0 00-.1-1.32 10.38 10.38 0 00-2.23-4.8 13.93 13.93 0 00-4.39-3.68A11.89 11.89 0 0022.85 1V.19c.4.05.79.11 1.19.19a19.22 19.22 0 0110.21 5.4z" fill="#1de9b6"/></svg>