<svg xmlns="http://www.w3.org/2000/svg" viewBox="0 0 77.42 79.97"><defs><radialGradient id="b" cx="-7912.19" cy="8593.12" r="80.8" gradientTransform="matrix(1 0 0 -1 7978.7 8602)" gradientUnits="userSpaceOnUse"><stop offset=".13" stop-color="#ffbd4f"/><stop offset=".19" stop-color="#ffac31"/><stop offset=".25" stop-color="#ff9d17"/><stop offset=".28" stop-color="#ff980e"/><stop offset=".4" stop-color="#ff563b"/><stop offset=".47" stop-color="#ff3750"/><stop offset=".71" stop-color="#f5156c"/><stop offset=".78" stop-color="#eb0878"/><stop offset=".86" stop-color="#e50080"/></radialGradient><radialGradient id="c" cx="-7941.71" cy="8560.09" r="80.8" gradientTransform="matrix(1 0 0 -1 7978.7 8602)" gradientUnits="userSpaceOnUse"><stop offset=".3" stop-color="#960e18"/><stop offset=".35" stop-color="#b11927" stop-opacity=".74"/><stop offset=".43" stop-color="#db293d" stop-opacity=".34"/><stop offset=".5" stop-color="#f5334b" stop-opacity=".09"/><stop offset=".53" stop-color="#ff3750" stop-opacity="0"/></radialGradient><radialGradient id="d" cx="-7931.97" cy="8611.46" r="58.53" gradientTransform="matrix(1 0 0 -1 7978.7 8602)" gradientUnits="userSpaceOnUse"><stop offset=".13" stop-color="#fff44f"/><stop offset=".25" stop-color="#ffdc3e"/><stop offset=".51" stop-color="#ff9d12"/><stop offset=".53" stop-color="#ff980e"/></radialGradient><radialGradient id="e" cx="-7950.65" cy="8538.98" r="38.47" gradientTransform="matrix(1 0 0 -1 7978.7 8602)" gradientUnits="userSpaceOnUse"><stop offset=".35" stop-color="#3a8ee6"/><stop offset=".47" stop-color="#5c79f0"/><stop offset=".67" stop-color="#9059ff"/><stop offset="1" stop-color="#c139e6"/></radialGradient><radialGradient id="f" cx="-7943.34" cy="8570.41" r="20.4" gradientTransform="matrix(.97 -.23 -.28 -1.14 10119.2 7921.73)" gradientUnits="userSpaceOnUse"><stop offset=".21" stop-color="#9059ff" stop-opacity="0"/><stop offset=".28" stop-color="#8c4ff3" stop-opacity=".06"/><stop offset=".75" stop-color="#7716a8" stop-opacity=".45"/><stop offset=".97" stop-color="#6e008b" stop-opacity=".6"/></radialGradient><radialGradient id="g" cx="-7942.73" cy="8596.43" r="27.68" gradientTransform="matrix(1 0 0 -1 7978.7 8602)" gradientUnits="userSpaceOnUse"><stop offset="0" stop-color="#ffe226"/><stop offset=".12" stop-color="#ffdb27"/><stop offset=".29" stop-color="#ffc82a"/><stop offset=".5" stop-color="#ffa930"/><stop offset=".73" stop-color="#ff7e37"/><stop offset=".79" stop-color="#ff7139"/></radialGradient><radialGradient id="h" cx="-7920.98" cy="8613.98" r="118.08" gradientTransform="matrix(1 0 0 -1 7978.7 8602)" gradientUnits="userSpaceOnUse"><stop offset=".11" stop-color="#fff44f"/><stop offset=".46" stop-color="#ff980e"/><stop offset=".62" stop-color="#ff5634"/><stop offset=".72" stop-color="#ff3647"/><stop offset=".9" stop-color="#e31587"/></radialGradient><radialGradient id="i" cx="-7925.71" cy="8617.67" r="86.5" gradientTransform="matrix(.1 1 .65 -.07 -4747.37 8475.28)" gradientUnits="userSpaceOnUse"><stop offset="0" stop-color="#fff44f"/><stop offset=".06" stop-color="#ffe847"/><stop offset=".17" stop-color="#ffc830"/><stop offset=".3" stop-color="#ff980e"/><stop offset=".36" stop-color="#ff8b16"/><stop offset=".46" stop-color="#ff672a"/><stop offset=".57" stop-color="#ff3647"/><stop offset=".74" stop-color="#e31587"/></radialGradient><radialGradient id="j" cx="-7943.38" cy="8586.18" r="73.72" gradientTransform="matrix(1 0 0 -1 7978.7 8602)" gradientUnits="userSpaceOnUse"><stop offset=".14" stop-color="#fff44f"/><stop offset=".48" stop-color="#ff980e"/><stop offset=".59" stop-color="#ff5634"/><stop offset=".66" stop-color="#ff3647"/><stop offset=".9" stop-color="#e31587"/></radialGradient><radialGradient id="k" cx="-7923.92" cy="8581.86" r="80.69" gradientTransform="matrix(1 0 0 -1 7978.7 8602)" gradientUnits="userSpaceOnUse"><stop offset=".09" stop-color="#fff44f"/><stop offset=".23" stop-color="#ffe141"/><stop offset=".51" stop-color="#ffaf1e"/><stop offset=".63" stop-color="#ff980e"/></radialGradient><linearGradient id="a" x1="65.78" y1="65.61" x2="1.44" y2="3.54" gradientTransform="matrix(1 0 0 -1 3.7 78)" gradientUnits="userSpaceOnUse"><stop offset=".05" stop-color="#fff44f"/><stop offset=".11" stop-color="#ffe847"/><stop offset=".23" stop-color="#ffc830"/><stop offset=".37" stop-color="#ff980e"/><stop offset=".4" stop-color="#ff8b16"/><stop offset=".46" stop-color="#ff672a"/><stop offset=".53" stop-color="#ff3647"/><stop offset=".7" stop-color="#e31587"/></linearGradient><linearGradient id="l" x1="65.01" y1="65.94" x2="10.26" y2="11.2" gradientTransform="matrix(1 0 0 -1 3.7 78)" gradientUnits="userSpaceOnUse"><stop offset=".17" stop-color="#fff44f" stop-opacity=".8"/><stop offset=".27" stop-color="#fff44f" stop-opacity=".63"/><stop offset=".49" stop-color="#fff44f" stop-opacity=".22"/><stop offset=".6" stop-color="#fff44f" stop-opacity="0"/></linearGradient></defs><path d="M74.62 26.83c-1.69-4.06-5.1-8.43-7.78-9.81a40.35 40.35 0 013.93 11.76v.07C66.39 17.92 59 13.52 52.89 3.92c-.31-.48-.61-1-.91-1.48-.17-.29-.31-.56-.43-.8A7.51 7.51 0 0151 .1a.1.1 0 00-.08-.1h-.08c-9.73 5.7-13 16.26-13.34 21.53a19.35 19.35 0 00-10.67 4.12 10.53 10.53 0 00-1-.76 18 18 0 01-.11-9.48 28.94 28.94 0 00-9.33 7.21c-1.54-1.94-1.43-8.36-1.34-9.7a7 7 0 00-1.3.68 29.29 29.29 0 00-3.79 3.25 34.37 34.37 0 00-3.69 4.35 32.83 32.83 0 00-5.2 11.75l-.07.24c0 .34-.32 2.05-.36 2.42v.09A36.87 36.87 0 000 41v.2a38.76 38.76 0 0077 6.6c.07-.5.12-1 .18-1.5a39.93 39.93 0 00-2.56-19.47zM30 57.16c.18.09.35.19.53.27zm40.78-28.31z" fill="url(#a)"/><path d="M74.62 26.83c-1.69-4.06-5.1-8.43-7.78-9.81a40.35 40.35 0 013.93 11.76v.08A35.1 35.1 0 0169.57 55c-4.44 9.53-15.2 19.3-32 18.82-18.18-.51-34.2-14-37.19-31.68-.55-2.79 0-4.2.27-6.47A29.15 29.15 0 000 41v.2a38.76 38.76 0 0077 6.6c.07-.5.12-1 .18-1.5a39.93 39.93 0 00-2.56-19.47z" fill="url(#b)"/><path d="M74.62 26.83c-1.69-4.06-5.1-8.43-7.78-9.81a40.35 40.35 0 013.93 11.76v.08A35.1 35.1 0 0169.57 55c-4.44 9.53-15.2 19.3-32 18.82-18.18-.51-34.2-14-37.19-31.68-.55-2.79 0-4.2.27-6.47A29.15 29.15 0 000 41v.2a38.76 38.76 0 0077 6.6c.07-.5.12-1 .18-1.5a39.93 39.93 0 00-2.56-19.47z" fill="url(#c)"/><path d="M55.78 31.38l.24.18a20.82 20.82 0 00-3.6-4.7C40.38 14.82 49.27.74 50.76 0 41 5.7 37.74 16.26 37.44 21.53c.45 0 .9-.06 1.36-.06a19.55 19.55 0 0116.98 9.91z" fill="url(#d)"/><path d="M38.83 33.79c-.07 1-3.48 4.29-4.67 4.29-11 0-12.81 6.66-12.81 6.66.49 5.62 4.4 10.24 9.13 12.69l.66.31c.38.17.76.32 1.14.47a17.32 17.32 0 005 1c19.32.91 23.06-23.1 9.12-30.07a13.39 13.39 0 019.34 2.27 19.55 19.55 0 00-17-9.91c-.46 0-.91 0-1.36.06a19.35 19.35 0 00-10.67 4.12c.59.5 1.26 1.16 2.67 2.55 2.69 2.56 9.43 5.24 9.45 5.56z" fill="url(#e)"/><path d="M38.83 33.79c-.07 1-3.48 4.29-4.67 4.29-11 0-12.81 6.66-12.81 6.66.49 5.62 4.4 10.24 9.13 12.69l.66.31c.38.17.76.32 1.14.47a17.32 17.32 0 005 1c19.32.91 23.06-23.1 9.12-30.07a13.39 13.39 0 019.34 2.27 19.55 19.55 0 00-17-9.91c-.46 0-.91 0-1.36.06a19.35 19.35 0 00-10.67 4.12c.59.5 1.26 1.16 2.67 2.55 2.69 2.56 9.43 5.24 9.45 5.56z" fill="url(#f)"/><path d="M25 24.36c.31.2.57.37.79.53a17.94 17.94 0 01-.1-9.48 28.73 28.73 0 00-9.33 7.21c.16 0 5.78-.1 8.64 1.74z" fill="url(#g)"/><path d="M.35 42.16c3 17.67 19 31.17 37.2 31.68 16.83.48 27.58-9.29 32-18.82a35.1 35.1 0 001.21-26.16v.07c1.37 9-3.2 17.67-10.33 23.55v.05c-13.9 11.33-27.21 6.84-29.91 5l-.52-.36c-8.15-3.87-11.5-11.26-10.78-17.6A9.94 9.94 0 0110 33.8a14.59 14.59 0 0114.24-.57 19.32 19.32 0 0014.56.57c0-.32-6.76-3-9.39-5.59-1.41-1.39-2.07-2.05-2.67-2.55a10.53 10.53 0 00-1-.76l-.8-.53c-2.82-1.84-8.45-1.74-8.63-1.74-1.53-1.94-1.43-8.36-1.34-9.7a6.91 6.91 0 00-1.29.68 28 28 0 00-3.79 3.25 33.6 33.6 0 00-3.62 4.34 32.83 32.83 0 00-5.2 11.75C1.05 33-.33 39 .35 42.16z" fill="url(#h)"/><path d="M52.42 26.86a21 21 0 013.6 4.7c.22.17.42.33.59.48 8.78 8.1 4.18 19.55 3.84 20.37 7.13-5.89 11.7-14.58 10.33-23.56C66.39 17.92 59 13.52 52.89 3.92c-.31-.48-.61-1-.91-1.48-.17-.29-.31-.56-.43-.8A7.51 7.51 0 0151 .1a.1.1 0 00-.08-.1h-.08c-1.57.74-10.46 14.82 1.58 26.86z" fill="url(#i)"/><path d="M56.6 32a7.41 7.41 0 00-.58-.48l-.24-.18a13.43 13.43 0 00-9.35-2.27c13.94 7 10.2 31-9.12 30.07a17.32 17.32 0 01-5-1c-.38-.15-.76-.3-1.14-.47l-.65-.31c2.69 1.83 16 6.33 29.91-5v-.05c.36-.72 4.96-12.18-3.83-20.31z" fill="url(#j)"/><path d="M21.35 44.74s1.79-6.66 12.81-6.66c1.2 0 4.6-3.33 4.67-4.29a19.32 19.32 0 01-14.56-.57 14.61 14.61 0 00-14.27.57 10 10 0 009.19 5.77c-.7 6.34 2.65 13.73 10.81 17.6l.53.27c-4.78-2.43-8.69-7.07-9.18-12.69z" fill="url(#k)"/><path d="M74.62 26.83c-1.69-4.06-5.1-8.43-7.78-9.81a40.35 40.35 0 013.93 11.76v.07C66.39 17.92 59 13.52 52.89 3.92c-.31-.48-.61-1-.91-1.48-.17-.29-.31-.56-.43-.8A7.51 7.51 0 0151 .1a.1.1 0 00-.08-.1h-.08c-9.73 5.7-13 16.26-13.34 21.53.45 0 .9-.06 1.36-.06a19.55 19.55 0 0117 9.91 13.39 13.39 0 00-9.34-2.27c13.94 7 10.2 31-9.12 30.07a17.32 17.32 0 01-5-1c-.38-.15-.76-.3-1.14-.47l-.66-.31-.6-.24c.18.09.35.19.53.27-4.73-2.45-8.64-7.07-9.13-12.69 0 0 1.79-6.66 12.81-6.66 1.2 0 4.6-3.33 4.67-4.29 0-.32-6.76-3-9.39-5.59-1.41-1.39-2.08-2.05-2.67-2.55a10.53 10.53 0 00-1-.76 18 18 0 01-.11-9.48 28.94 28.94 0 00-9.33 7.21c-1.54-1.94-1.43-8.36-1.34-9.7a7 7 0 00-1.3.68 29.29 29.29 0 00-3.79 3.25 34.37 34.37 0 00-3.68 4.35 32.83 32.83 0 00-5.2 11.75l-.07.24c-.07.34-.4 2.08-.45 2.45A44.54 44.54 0 000 41v.2a38.76 38.76 0 0077 6.6c.07-.5.12-1 .18-1.5a39.93 39.93 0 00-2.56-19.47zm-3.85 2z" fill="url(#l)"/></svg>