<svg xmlns="http://www.w3.org/2000/svg" viewBox="0 0 38 40.01"><path d="M24.4 4.41c1.1-.7 5.3-3.3 8.8-3.3 6.6 0 3.5 7.7 3.5 7.7l.2.2c3.8-9.7-3.5-9-3.5-9-4.1 0-9.3 3.4-10.4 4.2A30.28 30.28 0 0019.9 4C4.7 4 2.4 15.61 2.1 19a4.53 4.53 0 00-.1.8v-.1A37.32 37.32 0 0116.5 7.51v.6C4 16.61 1 29.21.3 31.71S0 40 5.3 40s10.4-4.2 10.4-4.2a30.45 30.45 0 004.3.2c13.2 0 16.7-12 16.7-12H25a5.78 5.78 0 01-5.4 4c-5.8 0-5.6-6-5.6-6h23c.4-5.5-1.1-9.3-3.3-11.9a14 14 0 00-9.3-5.69zM15 35.61s-7.8 4.9-11.4 1.5c-1.9-3.4 1.2-8.2 1.2-8.2s2.4 4.9 10.2 6.7zm-1.2-29.3zM14 17s-.1-5 5.5-5a5.15 5.15 0 015.5 5z" fill="#29b6f6"/></svg>