<svg xmlns="http://www.w3.org/2000/svg" xmlns:xlink="http://www.w3.org/1999/xlink" width="48" height="48"><defs><radialGradient xlink:href="#a" id="e" gradientUnits="userSpaceOnUse" gradientTransform="matrix(.77312 0 0 .77647 7.508 3.322)" cx="18.248" cy="15.716" fx="18.248" fy="15.716" r="29.993"/><radialGradient xlink:href="#b" id="f" gradientUnits="userSpaceOnUse" gradientTransform="matrix(.76028 0 0 .76348 7.818 3.624)" cx="15.601" cy="12.142" fx="15.601" fy="12.142" r="43.527"/><radialGradient xlink:href="#d" id="g" gradientUnits="userSpaceOnUse" cx="12.071" cy="12.493" fx="12.071" fy="12.493" r="6.718"/><radialGradient xlink:href="#d" id="h" gradientUnits="userSpaceOnUse" cx="12.071" cy="12.493" fx="12.071" fy="12.493" r="6.718"/><radialGradient xlink:href="#d" id="i" gradientUnits="userSpaceOnUse" cx="12.071" cy="12.493" fx="12.071" fy="12.493" r="6.718"/><radialGradient xlink:href="#d" id="j" gradientUnits="userSpaceOnUse" cx="12.071" cy="12.493" fx="12.071" fy="12.493" r="6.718"/><radialGradient xlink:href="#d" id="m" gradientUnits="userSpaceOnUse" cx="12.071" cy="12.493" fx="12.071" fy="12.493" r="6.718"/><radialGradient xlink:href="#d" id="p" gradientUnits="userSpaceOnUse" cx="12.071" cy="12.493" fx="12.071" fy="12.493" r="6.718"/><radialGradient xlink:href="#d" id="q" gradientUnits="userSpaceOnUse" cx="12.071" cy="12.493" fx="12.071" fy="12.493" r="6.718"/><radialGradient xlink:href="#d" id="r" gradientUnits="userSpaceOnUse" cx="12.071" cy="12.493" fx="12.071" fy="12.493" r="6.718"/><linearGradient id="a"><stop offset="0" stop-color="#d3e9ff"/><stop offset=".155" stop-color="#d3e9ff"/><stop offset=".75" stop-color="#4074ae"/><stop offset="1" stop-color="#36486c"/></linearGradient><linearGradient id="b"><stop offset="0" stop-color="#fff"/><stop offset="1" stop-color="#fff" stop-opacity=".165"/></linearGradient><linearGradient id="c"><stop offset="0" stop-color="#fff"/><stop offset="1" stop-color="#fff" stop-opacity="0"/></linearGradient><linearGradient id="d"><stop offset="0" stop-color="#fff"/><stop offset="1" stop-color="#fff" stop-opacity="0"/></linearGradient><linearGradient xlink:href="#c" id="k" gradientUnits="userSpaceOnUse" x1="-25.176" y1="30.057" x2="-22.252" y2="21.042"/><linearGradient xlink:href="#c" id="l" gradientUnits="userSpaceOnUse" x1="-25.176" y1="30.057" x2="-22.114" y2="22.662"/><linearGradient xlink:href="#c" id="n" gradientUnits="userSpaceOnUse" x1="-22.823" y1="28.338" x2="-22.114" y2="22.662"/><linearGradient xlink:href="#c" id="o" gradientUnits="userSpaceOnUse" x1="-21.659" y1="15.649" x2="-21.962" y2="21.336"/></defs><rect width="3.124" height="4.044" x="1.267" y="57.666" rx=".58" ry=".58" transform="rotate(-45)" fill="#f2f2f1" stroke="#888a85" stroke-linecap="round" stroke-linejoin="round"/><rect width="3.124" height="4.044" x="1.974" y="6.88" rx=".58" ry=".58" transform="rotate(-45)" fill="#f2f2f1" stroke="#888a85" stroke-linecap="round" stroke-linejoin="round"/><path d="M34.874 37.34c2.383 1.387 6.028 3.127 7.148 4.16l3.478-3.406c-1.245-1.187-2.794-4.697-4.19-7.046l-6.436 6.292zM18.126 6.66c-2.383-1.387-6.028-3.127-7.148-4.16L7.5 5.906c1.245 1.187 2.794 4.697 4.19 7.046l6.436-6.292zM11.66 30.874c-1.387 2.383-3.127 6.028-4.16 7.148l3.406 3.478c1.187-1.245 4.697-2.794 7.046-4.19l-6.292-6.436zM9.547 18.072c-2.666.704-6.474 2.051-7.996 2.113L1.5 25.052c1.72-.041 5.297 1.346 7.946 2.019l.1-9zM21.5 38.5c.704 2.665 2.051 6.474 2.113 7.996l4.867.05c-.041-1.72 1.346-5.296 2.019-7.945L21.5 38.5z" fill="#f2f2f1" fill-rule="evenodd" stroke="#888a85" stroke-linejoin="round"/><path d="M34.643 36.102c2.382 1.386 6.153 3.002 7.273 4.035l2.156-2.085c-1.246-1.187-2.508-4.983-3.905-7.332l-5.524 5.382z" opacity=".8" fill="none" fill-rule="evenodd" stroke="#fff" stroke-linejoin="round"/><path d="M41.495 21.558c0 8.316-6.712 15.057-14.991 15.057-8.28 0-14.992-6.742-14.992-15.057 0-8.315 6.712-15.056 14.992-15.056 8.279 0 14.991 6.74 14.991 15.056h0z" fill="url(#e)" stroke="#39396c"/><path d="M10.547 18.752c-2.666.704-6.474 2.228-7.996 2.29L2.5 24.04c1.72-.041 5.297 1.75 7.946 2.423l.1-7.711zM22.197 37.504c.704 2.665 2.228 6.474 2.29 7.996l2.998.05c-.041-1.72 1.75-5.297 2.423-7.945l-7.711-.101zM12.756 30.714c-1.387 2.383-3.002 6.153-4.036 7.273l2.085 2.156c1.187-1.245 4.983-2.508 7.332-3.905l-5.381-5.524zM18.428 8.047c-2.382-1.387-6.153-3.002-7.273-4.035L9 6.097c1.246 1.187 2.508 4.983 3.905 7.331l5.524-5.38z" fill="none" fill-rule="evenodd" stroke="#fff" stroke-linejoin="round" opacity=".8"/><path d="M21.588 7.256l-1.992-2.572c-5.075 3.024-11.098 8.19-11.098 17.429C8.522 32.85 16.94 39.446 26.07 39.54c9.13-.047 14.845-6.166 16.932-10.285l-2.348-2.143c-2.845 6.81-8.537 9.405-14.584 9.571-6.9-.119-14.193-5.916-14.513-14.678-.095-8.465 5.857-13.107 10.031-14.75z" fill="#eeeeec" fill-rule="evenodd" stroke="#888a85" stroke-linejoin="round"/><g fill="#204a87" fill-opacity=".713"><path d="M40.796 20.049c0 .194 0 0 0 0l-.404.457c-.248-.292-.526-.537-.808-.793l-.62.09-.566-.64v.793l.485.367.323.366.432-.488.323.61v.61l-.486.549-.889.61-.673.672-.432-.49.216-.548-.431-.488-.728-1.556-.62-.7-.162.182.243.885.458.518c.261.755.52 1.476.863 2.197.533 0 1.034-.056 1.563-.123v.427l-.647 1.587-.593.67-.485 1.039v1.707l.162.672-.27.304-.593.367-.62.518.513.58-.701.61.135.396-1.052 1.19h-.7l-.593.367h-.378v-.488l-.161-.978a96.049 96.049 0 00-.647-1.829c0-.449.027-.893.054-1.342l.27-.61-.378-.733.028-1.006-.513-.58.256-.838-.417-.474h-.728l-.243-.274-.728.458-.296-.336-.674.58-1.374-1.557-.54-1.281.486-.732-.27-.305.593-1.404c.487-.605.995-1.186 1.509-1.769l.917-.244 1.024-.121.7.183.998 1.006.35-.397.485-.06.917.304h.7l.486-.427.215-.305-.485-.304-.81-.061c-.224-.312-.432-.639-.699-.916l-.27.122-.108.794-.485-.55-.107-.61-.539-.426h-.217l.54.61-.216.549-.43.121.269-.549-.486-.243-.43-.488-.81.182-.107.244-.485.305-.27.672-.673.335-.297-.335h-.323v-1.099l.7-.366h.54l-.109-.427-.43-.427.727-.153.404-.457.323-.55h.594l-.162-.426.378-.244v.488l.808.183.808-.671.054-.306.7-.487c-.253.031-.507.054-.754.122v-.55l.27-.61h-.27l-.592.549-.163.305.163.428-.27.731-.431-.244-.377-.426-.594.426-.215-.976 1.023-.67v-.367l.648-.427 1.024-.244.7.244 1.294.244-.323.366h-.7l.7.732.539-.61.164-.268s2.066 1.852 3.247 3.879c1.181 2.026 1.736 4.415 1.736 4.9zM27.448 11.537l-.054.366.378.244.646-.427-.323-.366-.432.244-.215-.06M28.041 9.036l-1.402-.55-1.616.184-1.995.549-.378.366 1.24.854v.488l-.485.488.647 1.282.43-.245.54-.854c.834-.257 1.58-.549 2.372-.915l.647-1.647M29.497 14.161l-.216-.55-.378.123.108.67.486-.243"/><path d="M29.712 14.038l-.108.733.593-.122.43-.427-.377-.366a10.93 10.93 0 00-.43-.976h-.323v.365l.215.244v.55M21.734 25.63l-.431-.854-.809-.183-.43-1.158-1.079.121-.916-.67-.97.854v.134c-.294-.084-.655-.096-.917-.257l-.215-.61v-.67l-.647.06.162-1.281h-.378l-.377.488-.377.183-.54-.305-.054-.67.108-.733.81-.61h.646l.107-.366.809.182.593.733.108-1.22 1.024-.855.377-.915.755-.305.431-.61.97-.183.486-.732h-1.456l.917-.427h.646l.917-.306.107-.365-.323-.305-.377-.123.107-.365-.269-.55-.647.244.108-.488-.755-.427-.592 1.037.053.366-.593.245-.377.793-.162-.732-1.024-.428-.162-.548 1.348-.794.593-.549.054-.67-.323-.184-.432-.061-.269.671s-.45.088-.567.117c-1.48 1.364-4.47 4.308-5.165 9.867.027.129.503.876.503.876l1.132.67 1.132.306.486.61.754.55.43-.061.324.145v.099l-.43 1.159-.324.488.108.245-.27.913.97 1.77.97.855.432.61-.054 1.281.323.732-.323 1.403s-.026-.009.016.132c.041.14 1.727 1.076 1.834.996.107-.08.198-.152.198-.152l-.107-.304.43-.427.162-.428.701-.244.54-1.343-.162-.365.376-.549.809-.184.432-.976-.108-1.22.646-.915.108-.915c-.885-.439-1.762-.89-2.64-1.342M20.548 11.781l.54.366h.43v-.427l-.538-.244-.432.305"/><path d="M19.147 11.293l-.27.671h.54l.27-.61c.232-.164.463-.33.7-.488l.539.183 1.078.732.54-.488-.594-.244-.27-.549-1.024-.122-.054-.305-.485.122-.215.427-.27-.55-.108.245.054.61-.43.366"/><g><path d="M21.087 9.768l.27-.244.539-.122c.37-.18.74-.3 1.132-.427l-.215-.367-.696.1-.329.328-.542.079-.482.226-.234.113-.143.192.7.122"/></g><g><path d="M22.004 15.564l.323-.488-.485-.366.162.854"/></g></g><path d="M40.491 21.554c0 7.761-6.265 14.053-13.993 14.053-7.729 0-13.994-6.292-13.994-14.053 0-7.76 6.265-14.052 13.994-14.052 7.728 0 13.993 6.291 13.993 14.052h0z" opacity=".396" fill="none" stroke="url(#f)"/><g color="#000" fill-rule="evenodd" stroke-linecap="round" stroke-linejoin="round"><path transform="matrix(-.66283 .4863 .4863 .66283 35.005 61.327)" d="M18.789 12.493a6.718 6.718 0 11-13.435 0 6.718 6.718 0 1113.435 0z" style="marker:none" fill="url(#g)" overflow="visible"/><path style="marker:none" d="M31.707 76.485a1.702 1.702 0 102.745-2.014 1.702 1.702 0 10-2.745 2.014z" fill="#fff" overflow="visible"/></g><g color="#000" fill-rule="evenodd" stroke-linecap="round" stroke-linejoin="round"><path transform="matrix(-.51104 .37493 .37493 .51104 19.997 58.789)" d="M18.789 12.493a6.718 6.718 0 11-13.435 0 6.718 6.718 0 1113.435 0z" style="marker:none" fill="url(#h)" overflow="visible"/><path style="marker:none" d="M17.453 70.476a1.313 1.313 0 102.117-1.553 1.313 1.313 0 10-2.117 1.553z" fill="#fff" overflow="visible"/></g><g color="#000" fill-rule="evenodd" stroke-linecap="round" stroke-linejoin="round"><path style="marker:none" d="M18.789 12.493a6.718 6.718 0 11-13.435 0 6.718 6.718 0 1113.435 0z" transform="matrix(-.51104 .37493 .37493 .51104 20.702 50.25)" fill="url(#i)" overflow="visible"/><path d="M18.16 61.938a1.313 1.313 0 102.116-1.553 1.313 1.313 0 10-2.117 1.553z" style="marker:none" fill="#fff" overflow="visible"/></g><g color="#000" fill-rule="evenodd" stroke-linecap="round" stroke-linejoin="round"><path style="marker:none" d="M18.789 12.493a6.718 6.718 0 11-13.435 0 6.718 6.718 0 1113.435 0z" transform="matrix(-.55157 .40474 .40467 .55167 28.198 49.212)" fill="url(#j)" overflow="visible"/><path d="M25.453 61.828a1.417 1.417.02 102.284-1.677 1.417 1.417.02 10-2.284 1.677z" style="marker:none" fill="#fff" overflow="visible"/></g><path d="M19.532 5.865C14.436 8.89 9.5 13.556 9.5 22.945c.024 10.082 9.537 15.662 16.633 15.606 7.651-.048 13.591-5.258 15.687-9.377" opacity=".8" fill="none" fill-rule="evenodd" stroke="#fff" stroke-linejoin="round"/><g color="#000" fill-rule="evenodd" stroke-linecap="round" stroke-linejoin="round"><path transform="matrix(.83549 .4529 -.35203 .64942 49.112 15.101)" d="M-2.828 21.042a15.733 9.458 0 11-31.467 0 15.733 9.458 0 1131.467 0z" style="marker:none" fill="none" stroke="url(#k)" stroke-width="1.194" overflow="visible"/><path style="marker:none" d="M-2.828 21.042a15.733 9.458 0 11-31.467 0 15.733 9.458 0 1131.467 0z" transform="matrix(.69388 -.64938 .50476 .53934 33.026 -.039)" fill="none" stroke="url(#l)" stroke-width="1.194" overflow="visible"/><path style="marker:none" d="M18.789 12.493a6.718 6.718 0 11-13.435 0 6.718 6.718 0 1113.435 0z" transform="matrix(-.7725 .56677 .56677 .7725 36.912 13.08)" fill="url(#m)" overflow="visible"/><path d="M33.068 30.745a1.984 1.984 0 103.2-2.347 1.984 1.984 0 10-3.2 2.347z" style="marker:none" fill="#fff" overflow="visible"/><path transform="matrix(-.94576 -.0932 .07244 -.73514 7.379 33.184)" d="M-2.828 21.042a15.733 9.458 0 11-31.467 0 15.733 9.458 0 1131.467 0z" style="marker:none" fill="none" stroke="url(#n)" stroke-width="1.194" overflow="visible"/><path transform="matrix(.67803 -.63453 .49323 .52701 29.568 -1.854)" d="M-2.828 21.042a15.733 9.458 0 11-31.467 0 15.733 9.458 0 1131.467 0z" style="marker:none" fill="none" stroke="url(#o)" stroke-width="1.221" overflow="visible"/><path style="marker:none" d="M18.789 12.493a6.718 6.718 0 11-13.435 0 6.718 6.718 0 1113.435 0z" transform="matrix(-.5956 .43697 .43697 .5956 19.42 10.121)" fill="url(#p)" overflow="visible"/><path d="M16.457 23.742a1.53 1.53 0 102.466-1.81 1.53 1.53 0 10-2.466 1.81z" style="marker:none" fill="#fff" overflow="visible"/><g><path transform="matrix(-.5956 .43697 .43697 .5956 20.243 .17)" d="M18.789 12.493a6.718 6.718 0 11-13.435 0 6.718 6.718 0 1113.435 0z" style="marker:none" fill="url(#q)" overflow="visible"/><path style="marker:none" d="M17.28 13.791a1.53 1.53 0 102.466-1.81 1.53 1.53 0 10-2.467 1.81z" fill="#fff" overflow="visible"/></g><g><path transform="matrix(-.64283 .47171 .47163 .64295 28.979 -1.04)" d="M18.789 12.493a6.718 6.718 0 11-13.435 0 6.718 6.718 0 1113.435 0z" style="marker:none" fill="url(#r)" overflow="visible"/><path style="marker:none" d="M25.78 13.663a1.651 1.651.122 102.662-1.954 1.651 1.651.122 10-2.662 1.954z" fill="#fff" overflow="visible"/></g></g></svg>