<?xml version="1.0" encoding="UTF-8"?>
<svg width="526px" height="544px" viewBox="0 0 526 544" version="1.1" xmlns="http://www.w3.org/2000/svg" xmlns:xlink="http://www.w3.org/1999/xlink">
    <title>mobile</title>
    <g id="Page-1" stroke="none" stroke-width="1" fill="none" fill-rule="evenodd">
        <g id="mobile" transform="translate(0.500000, 0.750000)" fill="#000000" fill-rule="nonzero">
            <path d="M525,210 L437.5,210 L437.5,0 L87.5,0 L87.5,210 L0,210 L0,332.5 L87.5,332.5 L87.5,542.5 L437.5,542.5 L437.5,332.5 L525,332.5 L525,210 Z M105,17.5 L420,17.5 L420,210 L402.5,210 L402.5,70 L122.5,70 L122.5,210 L105,210 L105,17.5 Z M385,210 L140,210 L140,87.5 L385,87.5 L385,210 Z M17.5,315 L17.5,227.5 L393.75,227.5 L393.75,315 L17.5,315 Z M140,332.5 L385,332.5 L385,437.5 L140,437.5 L140,332.5 Z M420,525 L105,525 L105,332.5 L122.5,332.5 L122.5,455 L402.5,455 L402.5,332.5 L420,332.5 L420,525 Z M507.5,315 L411.25,315 L411.25,227.5 L507.5,227.5 L507.5,315 Z" id="Shape"></path>
            <path d="M428.75,262.5 C428.75,277.375 440.125,288.75 455,288.75 C459.375,288.75 462.875,287.875 466.375,286.125 L479.5,299.25 L491.75,287 L478.625,273.875 C480.375,270.375 481.25,266.875 481.25,262.5 C481.25,247.625 469.875,236.25 455,236.25 C440.125,236.25 428.75,247.625 428.75,262.5 Z M455,253.75 C460.25,253.75 463.75,257.25 463.75,262.5 C463.75,267.75 460.25,271.25 455,271.25 C449.75,271.25 446.25,267.75 446.25,262.5 C446.25,257.25 449.75,253.75 455,253.75 Z" id="Shape"></path>
            <polygon id="Path" points="35 245 52.5 245 52.5 297.5 35 297.5"></polygon>
            <path d="M183.75,52.5 L341.25,52.5 C346.5,52.5 350,49 350,43.75 C350,38.5 346.5,35 341.25,35 L183.75,35 C178.5,35 175,38.5 175,43.75 C175,49 178.5,52.5 183.75,52.5 Z" id="Path"></path>
            <polygon id="Path" points="245 472.5 280 472.5 280 507.5 245 507.5"></polygon>
        </g>
    </g>
</svg>