<svg xmlns="http://www.w3.org/2000/svg" viewBox="0 0 40 40"><path d="M40 20A20 20 0 1120 0a20 20 0 0120 20z" fill="#cfd8dc"/><path d="M37 20A17 17 0 1120 3a17 17 0 0117 17z" fill="#448aff"/><path d="M17.9 17.9l4.2 4.2 9.2-13.4z" fill="#ff3d00"/><path d="M20 20L31.3 8.7l-9.2 13.4z" fill="#bf360c"/><path d="M17.9 17.9L8.7 31.3l13.4-9.2z" fill="#fff"/><path d="M20 20L8.7 31.3l13.4-9.2z" fill="#bdbdbd"/><path d="M13.1 6.7a14.17 14.17 0 011.8-.8l1.2 2.7-1.8.8zM32 21h2.9c0-.3.1-.7.1-1a3.4 3.4 0 00-.1-1H32zM8.7 10.1l2.1 2.1 1.4-1.4-2.1-2.1zm12.3-5a3.4 3.4 0 00-1-.1 3.4 3.4 0 00-1 .1V8h2zm5.4 1.4a10.66 10.66 0 00-1.9-.7l-1.1 2.8 1.9.7zm-17.9 10l.7-1.9-2.7-1.1a10.66 10.66 0 00-.7 1.9zM8 19H5.1a3.4 3.4 0 00-.1 1 3.4 3.4 0 00.1 1H8zm23.5 4.5l-.7 1.9 2.7 1.1a10.66 10.66 0 00.7-1.9zm2.6-8.6a14.17 14.17 0 00-.8-1.8l-2.7 1.2.8 1.8zm-2.8 15l-2.1-2.1-1.4 1.4 2.1 2.1zM9.4 25.7l-.8-1.8-2.7 1.2a14.17 14.17 0 00.8 1.8zm16.3 4.9l-1.8.8 1.2 2.7a14.17 14.17 0 001.8-.8zm-9.2.9l-1.9-.7-1.1 2.7a10.66 10.66 0 001.9.7zm4.5 3.4V32h-2v2.9c.3 0 .7.1 1 .1a3.4 3.4 0 001-.1z" fill="#bbdefb"/></svg>