<?xml version="1.0" standalone="no"?>
<!DOCTYPE svg PUBLIC "-//W3C//DTD SVG 1.1//EN" "http://www.w3.org/Graphics/SVG/1.1/DTD/svg11.dtd">
<svg xmlns="http://www.w3.org/2000/svg">
<defs >
<font id="Assistant" horiz-adv-x="458" ><font-face
    font-family="Assistant ExtraLight Medium"
    units-per-em="1000"
    panose-1="0 0 0 0 0 0 0 0 0 0"
    ascent="1021"
    descent="-287"
    alphabetic="0" />
<glyph unicode=" " horiz-adv-x="200" />
<glyph unicode="!" horiz-adv-x="293" d="M117 201L105 574L102 670H190L188 574L176 201H117ZM146 -12Q121 -12 103 6T85 52Q85 82 103 100T146 118Q172 118 190 100T208 52Q208 24 190 6T146 -12Z" />
<glyph unicode="&quot;" horiz-adv-x="434" d="M100 426L82 595L80 690H172L169 595L152 426H100ZM281 426L263 595L261 690H353L350 595L333 426H281Z" />
<glyph unicode="#" horiz-adv-x="499" d="M90 0L114 203H35V263H122L140 408H55V468H146L170 650H225L202 468H333L356 650H412L389 468H469V408H382L364 263H449V203H357L332 0H276L301 203H170L146 0H90ZM178 263H308L326 408H196L178 263Z" />
<glyph unicode="$" horiz-adv-x="499" d="M245 -12Q209 -12 174 -2T107 26T51 66L91 126Q124 99 162 80T245 60Q300 60 327 87T354 160Q354 200 334 226T283 270T216 306T148 345T96 399T76 479Q76 530 99 568T163 628T257 650Q317 650 356 628T426 572L380 521Q353
548 327 563T260 578Q214 578 188 552T161 484Q161 448 181 425T233 385T300 352T367 313T419 255T439 166Q439 113 415 73T348 10T245 -12ZM222 -110V19H284V-110H222ZM222 618V748H284V618H222Z" />
<glyph unicode="%" horiz-adv-x="823" d="M201 -12L562 668H620L258 -12H201ZM184 262Q139 262 105 286T53 357T34 470Q34 569 75 622T184 676Q252 676 293 623T334 470Q334 404 316 358T263 287T184 262ZM184 315Q222 315 245 354T269 470Q269 548 246 585T184
623Q147 623 123 586T99 470Q99 393 123 354T184 315ZM639 -12Q594 -12 560 12T508 83T489 196Q489 295 530 348T639 402Q707 402 748 349T789 196Q789 130 770 84T718 13T639 -12ZM639 41Q677 41 700 80T724 196Q724 274 701 311T639 349Q602 349 578 312T554
196Q554 119 578 80T639 41Z" />
<glyph unicode="&amp;" horiz-adv-x="613" d="M233 -12Q173 -12 128 11T57 76T32 170Q32 219 53 256T109 321T181 373T254 422T310 473T332 536Q332 564 318 585T271 606Q235 606 214 580T192 512Q192 467 214 416T275 314T359 217T453 137Q492 108 529 89T598
60L575 -12Q535 -1 491 21T401 79Q347 121 296 174T205 285T141 401T117 511Q117 555 136 590T189 647T270 668Q332 668 367 632T402 537Q402 495 381 462T328 400T259 346T190 295T137 240T116 175Q116 140 132 113T178 72T243 57Q284 57 322 78T392 133Q432 176
462 232T510 355H590Q569 282 535 215T452 92Q411 46 357 17T233 -12Z" />
<glyph unicode="&apos;" horiz-adv-x="253" d="M100 426L82 595L80 690H172L169 595L152 426H100Z" />
<glyph unicode="(" horiz-adv-x="306" d="M213 -176Q151 -75 116 35T81 278Q81 410 116 521T213 732L267 708Q210 612 182 502T153 278Q153 165 181 55T267 -152L213 -176Z" />
<glyph unicode=")" horiz-adv-x="306" d="M93 -176L39 -152Q96 -55 124 55T153 278Q153 392 125 502T39 708L93 732Q155 632 190 521T225 278Q225 146 190 36T93 -176Z" />
<glyph unicode="*" horiz-adv-x="420" d="M139 415L98 445L154 540L56 581L72 628L176 603L185 712H236L245 604L348 628L364 581L266 540L323 445L282 415L211 501L139 415Z" />
<glyph unicode="+" horiz-adv-x="499" d="M215 103V298H34V362H215V557H284V362H465V298H284V103H215Z" />
<glyph unicode="," horiz-adv-x="253" d="M68 -172L47 -121Q91 -102 115 -70T139 3L130 78L171 17Q163 7 152 4T129 0Q104 0 86 15T67 59Q67 86 86 102T130 118Q165 118 183 92T202 18Q202 -47 167 -96T68 -172Z" />
<glyph unicode="-" horiz-adv-x="312" d="M42 218V284H272V218H42Z" />
<glyph unicode="." horiz-adv-x="253" d="M126 -12Q101 -12 83 6T65 52Q65 82 83 100T126 118Q152 118 170 100T188 52Q188 24 170 6T126 -12Z" />
<glyph unicode="/" horiz-adv-x="350" d="M10 -160L273 710H335L72 -160H10Z" />
<glyph unicode="0" horiz-adv-x="499" d="M250 -12Q154 -12 99 74T44 321Q44 482 99 566T250 650Q346 650 401 566T456 321Q456 161 401 75T250 -12ZM250 58Q286 58 313 85T356 170T372 321Q372 414 357 471T314 554T250 580Q213 580 186 554T143 471T128 321Q128
228 143 170T185 85T250 58Z" />
<glyph unicode="1" horiz-adv-x="457" d="M47 0V72H193V534H76V590Q121 598 153 610T213 638H279V72H410V0H47Z" />
<glyph unicode="2" horiz-adv-x="499" d="M40 0V51Q134 145 201 217T303 347T338 457Q338 511 309 545T219 579Q180 579 146 558T85 504L35 552Q76 597 122 623T230 650Q289 650 332 627T399 561T423 461Q423 401 390 341T298 213T166 69Q192 71 220 72T274 74H454V0H40Z" />
<glyph unicode="3" horiz-adv-x="499" d="M236 -12Q185 -12 146 1T77 34T26 78L69 134Q98 105 136 83T230 60Q288 60 324 91T361 174Q361 211 342 239T279 282T160 298V364Q226 364 265 379T321 421T338 480Q338 526 309 552T230 579Q191 579 158 562T96 515L49
570Q87 605 132 627T234 650Q290 650 333 631T401 575T426 487Q426 430 395 393T311 336V332Q350 323 381 302T430 247T449 170Q449 113 421 73T344 10T236 -12Z" />
<glyph unicode="4" horiz-adv-x="499" d="M303 0V423Q303 449 305 485T308 547H304Q292 524 279 502T252 456L108 243H471V174H18V232L288 638H385V0H303Z" />
<glyph unicode="5" horiz-adv-x="499" d="M235 -12Q184 -12 145 0T76 33T24 76L67 132Q96 104 133 82T226 60Q264 60 295 77T345 126T363 202Q363 267 327 303T230 339Q198 339 175 330T122 301L77 330L98 638H420V563H174L157 379Q180 391 202 397T253 404Q308
404 353 383T424 318T451 205Q451 136 421 88T341 14T235 -12Z" />
<glyph unicode="6" horiz-adv-x="499" d="M269 -12Q222 -12 182 7T112 64T65 160T48 295Q48 391 68 458T122 568T200 630T292 650Q344 650 382 631T448 582L400 528Q380 551 353 564T295 578Q250 578 213 551T152 463T129 295Q129 217 145 164T193 83T269 56Q299
56 324 73T363 121T378 193Q378 234 365 263T326 309T262 326Q232 326 196 306T128 237L124 304Q155 344 196 367T277 390Q332 390 373 368T436 303T459 193Q459 132 433 86T364 14T269 -12Z" />
<glyph unicode="7" horiz-adv-x="499" d="M176 0Q181 119 200 213T258 392T359 563H44V638H457V584Q400 513 365 447T309 314T280 170T265 0H176Z" />
<glyph unicode="8" horiz-adv-x="499" d="M251 -12Q191 -12 144 10T69 72T41 163Q41 204 58 236T103 293T160 334V338Q125 363 99 399T72 485Q72 535 96 572T161 629T254 650Q338 650 386 603T435 480Q435 446 421 417T387 365T347 327V323Q376 306 401 285T442
232T458 159Q458 111 433 73T360 11T251 -12ZM253 52Q289 52 316 65T359 104T375 161Q375 202 352 227T290 271T205 308Q168 283 144 249T119 171Q119 137 136 110T184 68T253 52ZM295 349Q327 378 343 409T360 475Q360 506 348 531T311 571T252 586Q209 586 180
559T151 485Q151 448 171 424T224 382T295 349Z" />
<glyph unicode="9" horiz-adv-x="499" d="M207 -12Q155 -12 116 7T51 56L99 110Q118 87 146 74T203 60Q249 60 286 87T346 175T369 342Q369 421 353 474T305 554T230 582Q199 582 175 565T136 517T121 444Q121 404 134 374T172 328T236 312Q267 312 303 332T371
401L374 334Q345 294 304 271T222 247Q166 247 125 269T62 335T39 444Q39 506 65 552T134 624T229 650Q276 650 316 631T387 574T434 477T451 342Q451 247 431 180T377 70T299 8T207 -12Z" />
<glyph unicode=":" horiz-adv-x="253" d="M126 346Q101 346 83 364T65 410Q65 440 83 458T126 476Q152 476 170 458T188 410Q188 382 170 364T126 346ZM126 -12Q101 -12 83 6T65 52Q65 82 83 100T126 118Q152 118 170 100T188 52Q188 24 170 6T126 -12Z" />
<glyph unicode=";" horiz-adv-x="253" d="M126 346Q101 346 83 364T65 410Q65 440 83 458T126 476Q152 476 170 458T188 410Q188 382 170 364T126 346ZM68 -172L47 -121Q91 -102 115 -70T139 3L130 78L171 17Q163 7 152 4T129 0Q104 0 86 15T67 59Q67 86 86 102T130
118Q165 118 183 92T202 18Q202 -47 167 -96T68 -172Z" />
<glyph unicode="&lt;" horiz-adv-x="499" d="M465 129L34 298V366L465 535V460L256 384L123 334V330L256 280L465 204V129Z" />
<glyph unicode="=" horiz-adv-x="499" d="M34 406V470H465V406H34ZM34 446V510H465V446H34Z" />
<glyph unicode="&gt;" horiz-adv-x="499" d="M34 129V204L243 280L376 330V334L243 384L34 460V535L465 366V298L34 129Z" />
<glyph unicode="?" horiz-adv-x="428" d="M159 201Q153 247 165 283T198 348T241 404T280 458T296 516Q296 542 286 563T254 597T201 610Q169 610 141 595T88 554L38 599Q71 635 114 658T211 682Q262 682 300 663T359 607T380 522Q380 483 364 452T325 392T280
336T245 275T236 201H159ZM200 -12Q175 -12 157 6T138 52Q138 82 156 100T200 118Q226 118 243 100T261 52Q261 24 244 6T200 -12Z" />
<glyph unicode="@" horiz-adv-x="851" d="M404 -156Q331 -156 267 -133T154 -65T78 48T50 204Q50 305 83 386T175 526T310 616T470 648Q571 648 645 606T760 489T800 314Q800 249 782 199T734 116T669 65T598 48Q557 48 528 67T494 124H492Q468 96 436 76T371
56Q319 56 284 93T249 198Q249 238 262 279T301 355T362 410T442 431Q468 431 488 420T522 382H524L535 423H592L553 222Q525 107 607 107Q638 107 669 131T720 201T740 312Q740 372 723 423T670 511T584 569T463 590Q397 590 335 563T222 486T143 365T114 206Q114
133 136 77T199 -19T294 -78T411 -99Q456 -99 497 -87T572 -54L595 -106Q552 -131 505 -143T404 -156ZM387 115Q408 115 430 129T478 173L506 330Q493 353 478 362T443 371Q405 371 377 345T334 280T318 203Q318 156 338 136T387 115Z" />
<glyph unicode="A" horiz-adv-x="546" d="M2 0L223 656H323L544 0H450L338 364Q321 419 305 473T273 584H269Q254 528 239 474T205 364L92 0H2ZM120 197V267H423V197H120Z" />
<glyph unicode="B" horiz-adv-x="589" d="M89 0V656H286Q352 656 403 640T483 589T512 495Q512 447 488 408T417 353V349Q476 338 513 299T550 192Q550 127 518 85T430 21T301 0H89ZM177 70H289Q372 70 417 100T463 196Q463 255 418 283T289 311H177V70ZM177 378H272Q354
378 390 406T426 484Q426 540 388 563T276 586H177V378Z" />
<glyph unicode="C" horiz-adv-x="572" d="M338 -12Q257 -12 192 28T89 144T51 327Q51 407 73 470T135 577T228 645T344 668Q404 668 450 644T525 587L477 530Q451 557 419 574T345 591Q284 591 239 559T168 469T142 330Q142 248 166 189T236 98T342 65Q389 65
425 84T492 138L540 83Q502 38 453 13T338 -12Z" />
<glyph unicode="D" horiz-adv-x="617" d="M89 0V656H254Q355 656 424 619T530 508T566 330Q566 226 530 152T426 39T258 0H89ZM177 72H248Q323 72 373 102T449 190T475 330Q475 413 450 469T374 555T248 584H177V72Z" />
<glyph unicode="E" horiz-adv-x="528" d="M89 0V656H469V582H177V381H424V307H177V74H479V0H89Z" />
<glyph unicode="F" horiz-adv-x="496" d="M89 0V656H470V582H177V365H425V291H177V0H89Z" />
<glyph unicode="G" horiz-adv-x="618" d="M349 -12Q262 -12 195 28T90 144T51 327Q51 407 74 470T137 577T233 645T354 668Q422 668 468 643T544 587L496 530Q471 555 438 573T356 591Q291 591 243 559T169 469T142 330Q142 248 167 189T240 98T358 65Q392 65
423 75T472 102V269H336V342H552V64Q521 31 469 10T349 -12Z" />
<glyph unicode="H" horiz-adv-x="653" d="M89 0V656H177V383H476V656H564V0H476V306H177V0H89Z" />
<glyph unicode="I" horiz-adv-x="266" d="M89 0V656H177V0H89Z" />
<glyph unicode="J" horiz-adv-x="482" d="M213 -12Q150 -12 105 15T30 94L92 138Q115 100 142 83T204 65Q256 65 282 97T308 203V656H396V195Q396 138 377 91T318 16T213 -12Z" />
<glyph unicode="K" horiz-adv-x="581" d="M89 0V656H177V331H180L447 656H546L341 405L578 0H480L287 336L177 205V0H89Z" />
<glyph unicode="L" horiz-adv-x="488" d="M89 0V656H177V74H461V0H89Z" />
<glyph unicode="M" horiz-adv-x="729" d="M89 0V656H194L318 310Q330 277 341 243T364 174H368Q380 208 390 242T413 310L536 656H640V0H559V353Q559 382 561 416T565 485T570 549H566L514 399L392 66H335L213 399L161 549H157Q159 520 162 485T166 416T168 353V0H89Z" />
<glyph unicode="N" horiz-adv-x="648" d="M89 0V656H180L412 250L483 113H487Q484 163 480 217T476 324V656H559V0H468L236 407L165 543H161Q165 493 168 441T172 336V0H89Z" />
<glyph unicode="O" horiz-adv-x="666" d="M333 -12Q250 -12 187 29T87 148T51 330Q51 436 87 511T186 627T333 668Q416 668 479 628T578 512T614 330Q614 225 579 148T480 30T333 -12ZM333 65Q390 65 433 98T500 190T524 330Q524 411 500 469T433 559T333 591Q275
591 232 560T166 470T142 330Q142 250 165 191T232 98T333 65Z" />
<glyph unicode="P" horiz-adv-x="568" d="M89 0V656H279Q352 656 407 638T494 577T526 462Q526 392 495 347T409 280T283 258H177V0H89ZM177 329H272Q357 329 397 361T438 462Q438 531 396 558T268 585H177V329Z" />
<glyph unicode="Q" horiz-adv-x="666" d="M333 -12Q250 -12 187 29T87 148T51 330Q51 436 87 511T186 627T333 668Q416 668 479 628T578 512T614 330Q614 225 579 148T480 30T333 -12ZM535 -166Q440 -166 377 -118T286 2L377 10Q390 -25 415 -47T473 -81T544 -93Q566
-93 583 -90T613 -83L630 -151Q615 -157 590 -161T535 -166ZM333 61Q390 61 433 94T500 187T524 330Q524 411 500 469T433 559T333 591Q275 591 232 560T166 470T142 330Q142 248 165 188T232 94T333 61Z" />
<glyph unicode="R" horiz-adv-x="572" d="M89 0V656H296Q363 656 415 639T498 580T528 470Q528 404 498 361T416 296T296 274H177V0H89ZM448 0L279 298L347 345L548 0H448ZM177 346H284Q360 346 400 377T440 470Q440 534 400 559T284 585H177V346Z" />
<glyph unicode="S" horiz-adv-x="535" d="M272 -12Q204 -12 145 14T42 85L94 146Q130 109 176 87T274 65Q337 65 372 93T408 169Q408 202 394 221T355 254T299 282L206 323Q175 336 145 357T94 411T73 492Q73 543 100 582T174 645T281 668Q340 668 390 646T476
586L429 530Q399 558 363 574T281 591Q227 591 195 566T162 498Q162 467 178 448T219 416T270 391L362 351Q401 335 431 313T479 257T497 176Q497 124 470 81T393 13T272 -12Z" />
<glyph unicode="T" horiz-adv-x="538" d="M225 0V582H28V656H510V582H313V0H225Z" />
<glyph unicode="U" horiz-adv-x="647" d="M324 -12Q272 -12 229 3T153 51T104 139T86 273V656H174V270Q174 192 194 148T247 84T324 65Q367 65 401 84T456 147T476 270V656H561V273Q561 194 543 140T493 52T418 3T324 -12Z" />
<glyph unicode="V" horiz-adv-x="518" d="M208 0L0 656H93L197 305Q214 247 227 197T259 89H263Q281 146 295 196T326 305L429 656H518L311 0H208Z" />
<glyph unicode="W" horiz-adv-x="788" d="M160 0L22 656H113L180 302Q189 250 198 197T218 91H222Q232 144 244 197T267 302L357 656H436L526 302Q538 250 549 197T572 91H576Q586 144 595 197T613 302L680 656H765L630 0H524L427 388Q419 426 411 462T396 537H392Q385
499 377 463T360 388L265 0H160Z" />
<glyph unicode="X" horiz-adv-x="517" d="M15 0L205 339L27 656H124L212 491Q224 469 236 447T262 395H266Q280 424 290 446T312 491L397 656H490L312 334L502 0H405L311 174Q299 198 285 223T256 279H252Q238 249 226 224T200 174L108 0H15Z" />
<glyph unicode="Y" horiz-adv-x="479" d="M196 0V253L-2 656H92L175 473Q191 437 206 402T238 330H242Q259 367 275 402T307 473L390 656H481L284 253V0H196Z" />
<glyph unicode="Z" horiz-adv-x="540" d="M44 0V52L386 582H75V656H494V604L153 74H498V0H44Z" />
<glyph unicode="[" horiz-adv-x="306" d="M94 -152V708H274V659H159V-103H274V-152H94Z" />
<glyph unicode="\" horiz-adv-x="350" d="M277 -160L15 710H77L339 -160H277Z" />
<glyph unicode="]" horiz-adv-x="306" d="M32 -152V-103H147V659H32V708H212V-152H32Z" />
<glyph unicode="^" horiz-adv-x="499" d="M59 283L212 670H288L440 283H365L300 456L252 589H248L199 456L134 283H59Z" />
<glyph unicode="_" horiz-adv-x="500" d="M12 -127V-70H488V-127H12Z" />
<glyph unicode="`" horiz-adv-x="543" d="M284 573L126 726L186 784L329 616L284 573Z" />
<glyph unicode="a" horiz-adv-x="506" d="M194 -12Q153 -12 121 4T70 52T51 127Q51 206 122 249T348 308Q348 339 340 366T310 411T250 428Q208 428 172 412T106 376L72 435Q95 450 125 465T190 489T264 499Q324 499 362 474T417 404T435 297V0H364L356 58H354Q319
29 279 9T194 -12ZM219 58Q254 58 284 74T348 120V252Q269 242 223 226T156 187T136 133Q136 93 160 76T219 58Z" />
<glyph unicode="b" horiz-adv-x="555" d="M299 -12Q265 -12 229 4T161 50H158L150 0H81V712H168V518L165 432Q198 461 237 480T316 499Q379 499 422 469T487 382T509 251Q509 168 480 109T402 19T299 -12ZM283 61Q322 61 353 83T402 148T420 250Q420 303 407 342T367
404T294 426Q265 426 233 410T168 361V110Q199 83 229 72T283 61Z" />
<glyph unicode="c" horiz-adv-x="456" d="M274 -12Q209 -12 158 18T76 105T45 243Q45 324 78 381T164 469T281 499Q329 499 363 482T423 442L379 385Q358 404 336 415T285 427Q241 427 208 404T155 340T135 243Q135 188 153 147T205 83T282 60Q315 60 344 74T395
108L432 50Q399 20 359 4T274 -12Z" />
<glyph unicode="d" horiz-adv-x="556" d="M247 -12Q156 -12 102 55T47 243Q47 322 76 379T154 467T257 499Q300 499 330 484T392 443L388 526V712H475V0H404L396 57H394Q366 29 328 9T247 -12ZM267 61Q300 61 329 77T388 126V377Q358 404 330 415T272 426Q235
426 204 404T155 340T136 244Q136 157 170 109T267 61Z" />
<glyph unicode="e" horiz-adv-x="497" d="M279 -12Q214 -12 161 18T77 106T45 243Q45 322 76 379T158 468T265 499Q327 499 371 471T437 391T460 270Q460 257 459 244T456 222H113L112 284H384Q384 355 354 392T266 430Q232 430 200 411T148 350T127 243Q127 180
149 139T209 78T290 57Q325 57 354 67T410 95L441 39Q409 18 369 3T279 -12Z" />
<glyph unicode="f" horiz-adv-x="295" d="M95 0V560Q95 610 110 646T158 703T240 724Q263 724 284 719T322 707L304 641Q291 648 277 650T250 653Q216 653 199 630T182 560V0H95ZM29 416V482L99 487H284V416H29Z" />
<glyph unicode="g" horiz-adv-x="506" d="M246 -223Q187 -223 141 -208T70 -164T44 -93Q44 -61 63 -33T116 16V20Q97 33 85 52T72 100Q72 131 89 154T126 191V195Q102 214 82 248T62 325Q62 379 87 418T155 478T246 499Q267 499 284 496T316 487H486V420H388Q404
404 415 379T426 323Q426 270 402 233T337 175T246 154Q229 154 211 158T175 170Q162 160 154 147T145 114Q145 92 163 78T229 63H323Q408 63 451 35T494 -54Q494 -100 464 -138T378 -199T246 -223ZM258 -164Q304 -164 337 -150T390 -114T409 -67Q409 -34 385 -21T313
-8H231Q217 -8 201 -7T168 -1Q142 -19 131 -39T120 -80Q120 -119 157 -141T258 -164ZM246 212Q274 212 296 226T333 265T347 325Q347 360 334 384T297 422T246 436Q204 436 175 407T146 325Q146 290 159 265T196 226T246 212Z" />
<glyph unicode="h" horiz-adv-x="546" d="M81 0V712H168V518L164 419Q198 452 236 475T325 499Q403 499 438 450T474 308V0H387V297Q387 364 366 394T298 424Q261 424 233 406T168 351V0H81Z" />
<glyph unicode="i" horiz-adv-x="248" d="M81 0V487H168V0H81ZM125 585Q101 585 85 600T69 641Q69 665 85 680T125 696Q150 696 165 681T181 641Q181 616 166 601T125 585Z" />
<glyph unicode="j" horiz-adv-x="249" d="M34 -216Q12 -216 -6 -212T-38 -203L-21 -137Q-11 -140 0 -142T24 -145Q60 -145 72 -120T84 -51L85 487H172L171 -51Q171 -101 158 -138T114 -195T34 -216ZM34 -216Q12 -216 -6 -212T-38 -203L-21 -137Q-11 -140 0 -142T24
-145Q60 -145 72 -120T84 -51L85 487H172L171 -51Q171 -101 158 -138T114 -195T34 -216ZM126 585Q102 585 86 600T70 641Q70 665 86 680T126 696Q150 696 166 681T182 641Q182 616 166 601T126 585Z" />
<glyph unicode="k" horiz-adv-x="498" d="M81 0V712H166V235H169L373 487H469L305 291L490 0H395L255 231L166 127V0H81Z" />
<glyph unicode="l" horiz-adv-x="257" d="M171 -12Q139 -12 119 1T90 40T81 102V712H168V96Q168 77 175 69T191 60Q195 60 198 60T209 62L220 -4Q212 -7 200 -9T171 -12Z" />
<glyph unicode="m" horiz-adv-x="831" d="M81 0V487H152L160 417H162Q194 451 232 475T314 499Q369 499 401 474T448 407Q486 448 525 473T608 499Q684 499 720 450T756 308V0H670V297Q670 364 649 394T581 424Q554 424 525 406T462 351V0H375V297Q375 364 354
394T287 424Q233 424 168 351V0H81Z" />
<glyph unicode="n" horiz-adv-x="548" d="M81 0V487H152L160 417H162Q197 452 236 475T325 499Q403 499 438 450T474 308V0H387V297Q387 364 366 394T298 424Q261 424 233 406T168 351V0H81Z" />
<glyph unicode="o" horiz-adv-x="543" d="M272 -12Q212 -12 160 18T77 105T45 243Q45 324 76 381T160 469T272 499Q331 499 382 469T466 382T498 243Q498 162 466 105T383 18T272 -12ZM272 60Q313 60 344 83T391 147T408 243Q408 298 392 339T344 404T272 427Q231
427 200 404T152 340T135 243Q135 188 152 147T200 83T272 60Z" />
<glyph unicode="p" horiz-adv-x="556" d="M81 -204V487H152L160 431H162Q195 459 235 479T316 499Q379 499 422 469T487 382T509 251Q509 168 480 109T402 19T299 -12Q266 -12 232 3T165 44L168 -40V-204H81ZM283 61Q322 61 353 83T402 148T420 250Q420 303 407
342T367 404T294 426Q265 426 234 410T168 361V110Q200 83 230 72T283 61Z" />
<glyph unicode="q" horiz-adv-x="556" d="M388 -204V-32L392 55Q363 27 326 8T247 -12Q156 -12 102 55T47 243Q47 322 76 379T154 467T257 499Q299 499 331 484T395 440H398L406 487H475V-204H388ZM267 61Q300 61 329 77T388 126V377Q358 404 330 415T272 426Q235
426 204 404T155 340T136 244Q136 157 170 109T267 61Z" />
<glyph unicode="r" horiz-adv-x="351" d="M81 0V487H152L160 398H162Q188 445 224 472T301 499Q317 499 329 497T353 489L337 413Q325 417 315 419T290 421Q259 421 226 397T168 310V0H81Z" />
<glyph unicode="s" horiz-adv-x="421" d="M210 -12Q158 -12 110 7T28 56L70 112Q102 87 136 71T212 55Q259 55 282 76T306 128Q306 153 290 169T248 197T195 219Q161 231 128 248T73 292T51 360Q51 419 96 459T220 499Q267 499 306 483T373 444L332 388Q307 407
281 419T222 432Q177 432 156 412T134 364Q134 341 149 327T189 302T242 281Q276 268 310 252T366 208T389 134Q389 94 369 61T308 8T210 -12Z" />
<glyph unicode="t" horiz-adv-x="341" d="M236 -12Q158 -12 127 33T96 152V416H24V482L100 487L110 623H182V487H313V416H182V151Q182 107 199 83T257 58Q270 58 285 62T312 71L328 6Q308 -1 284 -6T236 -12Z" />
<glyph unicode="u" horiz-adv-x="546" d="M223 -12Q147 -12 111 37T74 179V487H161V190Q161 123 182 93T251 63Q287 63 316 82T378 143V487H465V0H393L386 76H383Q350 36 312 12T223 -12Z" />
<glyph unicode="v" horiz-adv-x="471" d="M187 0L12 487H101L191 214Q202 178 213 142T236 70H240Q250 105 261 141T284 214L374 487H459L288 0H187Z" />
<glyph unicode="w" horiz-adv-x="722" d="M158 0L24 487H112L183 210Q191 175 198 142T211 73H215Q223 108 231 141T248 210L322 487H405L480 210Q489 175 497 142T513 73H517Q525 108 532 141T547 210L616 487H698L569 0H464L395 257Q387 292 380 326T363 397H359Q351
360 344 326T326 256L260 0H158Z" />
<glyph unicode="x" horiz-adv-x="451" d="M14 0L172 254L26 487H120L183 382Q194 362 206 342T230 301H234Q246 321 256 341T278 382L335 487H426L279 245L437 0H343L273 111Q261 133 248 155T221 198H217Q205 177 193 155T168 111L104 0H14Z" />
<glyph unicode="y" horiz-adv-x="471" d="M92 -208Q75 -208 61 -205T34 -198L51 -130Q59 -132 69 -134T88 -137Q129 -137 155 -108T196 -35L207 0L12 487H101L198 222Q210 190 222 155T245 84H249Q260 118 270 153T290 222L374 487H459L277 -38Q259 -87 235 -125T177
-186T92 -208Z" />
<glyph unicode="z" horiz-adv-x="427" d="M32 0V46L284 416H60V487H394V440L141 70H402V0H32Z" />
<glyph unicode="{" horiz-adv-x="306" d="M228 -152Q168 -152 140 -124T111 -18Q111 18 113 49T117 109T120 173Q120 202 103 226T34 251V305Q67 306 86 317T112 345T120 382Q120 416 118 446T113 507T111 574Q111 652 139 680T228 708H274V659H249Q209 659 196
638T182 569Q182 525 184 483T187 389Q187 340 173 315T126 280V276Q159 267 173 241T187 167Q187 117 185 75T182 -13Q182 -61 195 -82T249 -103H274V-152H228Z" />
<glyph unicode="|" horiz-adv-x="243" d="M91 -250V750H152V-250H91Z" />
<glyph unicode="}" horiz-adv-x="306" d="M32 -152V-103H57Q97 -103 110 -82T124 -13Q124 32 122 74T119 167Q119 215 133 241T180 276V280Q147 289 133 314T119 389Q119 440 121 482T124 569Q124 617 111 638T57 659H32V708H78Q138 708 166 680T195 574Q195 538
193 507T189 446T186 382Q186 363 193 346T220 317T272 305V251Q222 250 204 226T186 173Q186 139 188 110T193 49T195 -18Q195 -96 167 -124T78 -152H32Z" />
<glyph unicode="~" horiz-adv-x="499" d="M337 256Q308 256 284 268T240 297T201 327T160 340Q139 340 120 326T84 279L36 313Q64 362 97 383T162 404Q192 404 215 392T259 363T298 333T339 320Q361 320 379 335T415 381L464 346Q436 298 403 277T337 256Z" />
<glyph unicode="&#xa0;" horiz-adv-x="200" />
<glyph unicode="&#xa1;" horiz-adv-x="293" d="M102 -183L105 -87L117 286H176L188 -87L190 -183H102ZM146 369Q121 369 103 387T85 434Q85 463 103 481T146 499Q172 499 190 481T208 434Q208 406 190 388T146 369Z" />
<glyph unicode="&#xa2;" horiz-adv-x="499" d="M298 68Q229 68 176 96T92 179T61 310Q61 387 94 441T183 523T305 551Q353 551 388 534T447 493L405 438Q384 458 361 468T309 479Q260 479 224 458T167 399T147 310Q147 233 190 187T306 140Q341 140 369 154T419
186L457 131Q424 102 383 85T298 68ZM263 -33V654H317V-33H263Z" />
<glyph unicode="&#xa3;" horiz-adv-x="499" d="M53 0V53Q104 80 131 127T159 231Q159 271 147 310T123 387T111 464Q111 521 135 563T201 627T299 650Q353 650 390 629T455 574L405 525Q386 549 362 563T305 578Q253 578 225 546T196 462Q196 424 206 388T227
313T237 230Q237 179 222 145T176 78V74H456V0H53ZM53 284V339L120 342H377V284H53Z" />
<glyph unicode="&#xa4;" horiz-adv-x="499" d="M72 101L26 148L90 213Q72 237 63 266T54 329Q54 364 63 393T89 445L26 511L72 558L140 489Q188 525 250 525Q310 525 360 489L427 558L473 511L409 445Q426 422 436 393T446 329Q446 295 436 266T409 213L473 148L427
101L359 170Q336 153 308 144T250 134Q187 134 139 170L72 101ZM250 198Q281 198 308 214T350 260T366 329Q366 368 351 398T308 444T250 461Q218 461 192 445T150 398T134 329Q134 290 150 261T192 215T250 198Z" />
<glyph unicode="&#xa5;" horiz-adv-x="499" d="M206 0V158H45V206H206V271H45V320H184L22 638H113L189 469Q204 436 218 403T248 334H252Q269 370 283 403T313 469L389 638H477L314 320H454V271H292V206H454V158H292V0H206Z" />
<glyph unicode="&#xa6;" horiz-adv-x="243" d="M91 292V750H152V292H91ZM91 -250V213H152V-250H91Z" />
<glyph unicode="&#xa7;" horiz-adv-x="499" d="M345 141L297 184Q337 200 358 220T379 277Q379 312 359 334T307 372T239 403T171 436T119 483T98 553Q98 588 115 618T167 666T252 685Q300 685 339 668T408 626L366 571Q342 591 315 604T256 618Q214 618 196 600T178
556Q178 530 198 512T249 480T316 450T382 413T434 361T454 284Q454 248 441 222T402 177T345 141ZM236 -66Q183 -66 138 -47T62 6L114 54Q139 30 168 16T236 2Q276 2 298 21T320 68Q320 96 300 115T249 148T183 177T116 213T65 265T45 342Q45 392 76 427T154 483L196
440Q161 424 141 403T120 348Q120 315 140 293T192 256T260 225T327 191T379 144T399 73Q399 33 379 2T322 -47T236 -66Z" />
<glyph unicode="&#xa8;" horiz-adv-x="543" d="M369 586Q347 586 333 601T318 637Q318 659 332 673T369 688Q392 688 406 674T420 637Q420 616 406 601T369 586ZM175 586Q153 586 139 601T124 637Q124 659 138 673T175 688Q197 688 211 674T226 637Q226 616 212
601T175 586Z" />
<glyph unicode="&#xa9;" horiz-adv-x="745" d="M372 -10Q307 -10 249 13T145 79T75 185T49 324Q49 400 74 461T145 565T248 631T372 654Q438 654 496 631T600 565T670 461T696 324Q696 247 671 185T600 80T497 13T372 -10ZM380 126Q330 126 289 149T223 216T198
323Q198 381 224 423T292 489T383 512Q426 512 455 496T508 456L472 414Q452 434 433 444T387 455Q333 455 300 418T267 323Q267 258 299 221T383 183Q415 183 438 195T484 226L515 182Q488 158 457 142T380 126ZM372 32Q429 32 479 53T566 112T626 204T648 324Q648
388 626 441T567 532T479 590T372 611Q316 611 266 591T178 532T119 441T97 324Q97 258 118 205T178 113T266 53T372 32Z" />
<glyph unicode="&#xaa;" horiz-adv-x="346" d="M135 385Q91 385 64 411T37 480Q37 533 84 561T234 599Q234 630 221 650T174 670Q148 670 121 660T73 636L49 681Q74 696 109 710T184 724Q244 724 271 689T299 589V393H248L240 430H236Q216 412 191 399T135 385ZM155
437Q175 437 194 446T234 476V558Q159 551 130 532T100 485Q100 461 115 449T155 437Z" />
<glyph unicode="&#xab;" horiz-adv-x="433" d="M182 65L45 220V284L182 439L218 408L101 252L218 95L182 65ZM342 65L205 220V284L342 439L378 408L261 252L378 95L342 65Z" />
<glyph unicode="&#xac;" horiz-adv-x="499" d="M396 103V298H34V362H465V103H396Z" />
<glyph unicode="&#xad;" horiz-adv-x="312" d="M42 218V284H272V218H42Z" />
<glyph unicode="&#xae;" horiz-adv-x="426" d="M213 319Q161 319 118 344T50 413T24 516Q24 574 49 618T118 688T213 714Q265 714 308 689T376 619T402 516Q402 457 377 413T308 344T213 319ZM213 356Q255 356 288 376T341 432T361 516Q361 563 342 599T289 655T213
676Q171 676 138 656T85 599T65 516Q65 468 84 433T137 377T213 356ZM140 417V620H217Q249 620 272 606T295 555Q295 537 285 522T258 500L304 417H257L222 486H182V417H140ZM182 519H207Q227 519 238 527T250 552Q250 567 241 576T210 585H182V519Z" />
<glyph unicode="&#xaf;" horiz-adv-x="543" d="M138 600V660H406V600H138Z" />
<glyph unicode="&#xb0;" horiz-adv-x="334" d="M167 427Q133 427 105 443T58 487T40 555Q40 595 58 624T104 669T167 685Q201 685 230 669T276 624T294 555Q294 516 277 488T230 443T167 427ZM167 474Q200 474 221 497T242 555Q242 591 221 614T167 637Q134 637
113 614T92 555Q92 521 113 498T167 474Z" />
<glyph unicode="&#xb1;" horiz-adv-x="499" d="M215 129V303H34V368H215V557H284V368H465V303H284V129H215ZM34 0V65H465V0H34Z" />
<glyph unicode="&#xb2;" horiz-adv-x="376" d="M59 406V444Q119 498 160 538T222 610T243 671Q243 709 223 730T169 752Q145 752 124 736T86 696L46 732Q70 766 104 787T178 808Q237 808 273 776T309 681Q309 644 291 610T240 541T167 463H328V406H59Z" />
<glyph unicode="&#xb3;" horiz-adv-x="368" d="M181 394Q133 394 96 416T35 470L79 504Q97 478 122 463T176 447Q208 447 230 465T253 515Q253 549 222 566T134 583V626Q184 626 211 645T238 694Q238 722 220 738T169 755Q148 755 128 742T91 708L51 744Q77 774
107 791T179 808Q213 808 242 796T288 760T305 703Q305 669 286 646T237 608Q270 599 295 575T320 511Q320 475 301 449T251 409T181 394Z" />
<glyph unicode="&#xb4;" horiz-adv-x="543" d="M260 573L215 616L358 784L418 726L260 573Z" />
<glyph unicode="&#xb5;" horiz-adv-x="546" d="M61 -183L63 -87L75 286H134L146 -87L149 -183H61ZM223 -12Q147 -12 111 37T74 179V487H161V190Q161 123 182 93T251 63Q287 63 316 82T378 143V487H465V0H393L386 76H383Q350 36 312 12T223 -12Z" />
<glyph unicode="&#xb6;" horiz-adv-x="565" d="M293 224Q221 224 164 247T73 318T40 442Q40 521 72 568T159 635T282 656H326V224H293ZM381 -80V656H469V-80H381Z" />
<glyph unicode="&#xb7;" horiz-adv-x="253" d="M126 257Q101 257 83 275T65 321Q65 351 83 369T126 387Q152 387 170 369T188 321Q188 293 170 275T126 257Z" />
<glyph unicode="&#xb8;" horiz-adv-x="543" d="M184 -227L176 -185Q238 -181 261 -170T284 -136Q284 -117 268 -106T207 -89L251 3H307L278 -64Q313 -71 332 -87T351 -135Q351 -179 308 -201T184 -227Z" />
<glyph unicode="&#xb9;" horiz-adv-x="344" d="M164 406V712H78V756Q112 762 134 771T176 796H231V406H164Z" />
<glyph unicode="&#xba;" horiz-adv-x="365" d="M182 385Q141 385 106 405T50 463T29 554Q29 608 50 645T106 703T182 724Q223 724 258 704T314 646T335 554Q335 501 314 464T258 406T182 385ZM182 438Q223 438 245 470T268 554Q268 607 246 638T182 670Q141 670
119 639T96 554Q96 503 118 471T182 438Z" />
<glyph unicode="&#xbb;" horiz-adv-x="433" d="M91 65L54 95L172 252L54 408L91 439L227 284V220L91 65ZM251 65L214 95L332 252L214 408L251 439L387 284V220L251 65Z" />
<glyph unicode="&#xbc;" horiz-adv-x="799" d="M189 -12L550 668H608L246 -12H189ZM160 282V588H74V632Q108 638 130 647T172 672H227V282H160ZM650 0V219L655 328H651L602 247L541 150H769V103H472V137L634 390H711V0H650Z" />
<glyph unicode="&#xbd;" horiz-adv-x="811" d="M174 -12L536 668H593L232 -12H174ZM160 282V588H74V632Q108 638 130 647T172 672H227V282H160ZM494 0V38Q554 92 595 132T657 204T678 265Q678 303 659 324T604 346Q580 346 560 330T522 290L482 326Q505 360 539
381T614 402Q673 402 708 370T744 275Q744 238 726 204T675 135T602 57H764V0H494Z" />
<glyph unicode="&#xbe;" horiz-adv-x="811" d="M219 -12L580 668H638L276 -12H219ZM181 270Q133 270 96 292T35 346L79 380Q97 354 122 339T176 323Q208 323 230 341T253 391Q253 425 222 442T134 459V502Q184 502 211 521T238 570Q238 598 220 614T169 631Q148
631 128 618T91 584L51 620Q77 650 107 667T179 684Q213 684 242 672T288 636T305 579Q305 545 286 522T237 484Q270 475 295 451T320 387Q320 351 301 325T251 285T181 270ZM662 0V219L667 328H663L614 247L553 150H781V103H484V137L646 390H723V0H662Z" />
<glyph unicode="&#xbf;" horiz-adv-x="428" d="M216 -195Q166 -195 128 -176T68 -121T47 -35Q47 4 63 35T102 95T148 151T183 212T192 286H268Q275 240 263 204T230 139T187 83T148 29T132 -29Q132 -55 142 -76T174 -110T226 -123Q260 -123 288 -108T340 -67L389
-112Q358 -147 315 -171T216 -195ZM228 369Q203 369 185 387T166 434Q166 463 184 481T228 499Q254 499 272 481T290 434Q290 406 272 388T228 369Z" />
<glyph unicode="&#xc0;" horiz-adv-x="546" d="M2 0L223 656H323L544 0H450L338 364Q321 419 305 473T273 584H269Q254 528 239 474T205 364L92 0H2ZM120 197V267H423V197H120ZM287 696L133 811L183 869L326 740L287 696Z" />
<glyph unicode="&#xc1;" horiz-adv-x="546" d="M2 0L223 656H323L544 0H450L338 364Q321 419 305 473T273 584H269Q254 528 239 474T205 364L92 0H2ZM120 197V267H423V197H120ZM255 696L216 740L359 869L409 811L255 696Z" />
<glyph unicode="&#xc2;" horiz-adv-x="546" d="M2 0L223 656H323L544 0H450L338 364Q321 419 305 473T273 584H269Q254 528 239 474T205 364L92 0H2ZM120 197V267H423V197H120ZM160 698L122 725L225 838H317L420 725L382 698L273 790H269L160 698Z" />
<glyph unicode="&#xc3;" horiz-adv-x="546" d="M2 0L223 656H323L544 0H450L338 364Q321 419 305 473T273 584H269Q254 528 239 474T205 364L92 0H2ZM120 197V267H423V197H120ZM346 708Q318 708 298 718T262 742T231 767T199 778Q180 778 167 762T151 713L93 717Q96
776 123 809T196 842Q224 842 244 831T281 807T311 783T343 772Q362 772 374 788T391 836L449 832Q447 773 419 741T346 708Z" />
<glyph unicode="&#xc4;" horiz-adv-x="546" d="M2 0L223 656H323L544 0H450L338 364Q321 419 305 473T273 584H269Q254 528 239 474T205 364L92 0H2ZM120 197V267H423V197H120ZM374 714Q353 714 339 728T324 765Q324 787 338 801T374 815Q397 815 411 801T425
765Q425 743 411 729T374 714ZM168 714Q146 714 132 728T117 765Q117 787 131 801T168 815Q190 815 204 801T218 765Q218 743 204 729T168 714Z" />
<glyph unicode="&#xc5;" horiz-adv-x="546" d="M2 0L223 656H323L544 0H450L338 364Q321 419 305 473T273 584H269Q254 528 239 474T205 364L92 0H2ZM120 197V267H423V197H120ZM271 698Q228 698 201 723T173 790Q173 831 200 856T271 881Q313 881 341 856T369
790Q369 749 341 724T271 698ZM271 736Q291 736 306 750T321 790Q321 814 306 828T271 843Q250 843 235 829T220 790Q220 764 235 750T271 736Z" />
<glyph unicode="&#xc6;" horiz-adv-x="824" d="M7 0L348 656H765V582H488V381H719V307H488V74H775V0H400V587H396Q371 534 345 481T291 374L99 0H7ZM156 188V258H452V188H156Z" />
<glyph unicode="&#xc8;" horiz-adv-x="528" d="M89 0V656H469V582H177V381H424V307H177V74H479V0H89ZM301 696L147 811L197 869L340 740L301 696Z" />
<glyph unicode="&#xc9;" horiz-adv-x="528" d="M89 0V656H469V582H177V381H424V307H177V74H479V0H89ZM269 696L230 740L373 869L423 811L269 696Z" />
<glyph unicode="&#xca;" horiz-adv-x="528" d="M89 0V656H469V582H177V381H424V307H177V74H479V0H89ZM174 698L136 725L239 838H331L434 725L396 698L287 790H283L174 698Z" />
<glyph unicode="&#xcb;" horiz-adv-x="528" d="M89 0V656H469V582H177V381H424V307H177V74H479V0H89ZM388 714Q367 714 353 728T338 765Q338 787 352 801T388 815Q411 815 425 801T439 765Q439 743 425 729T388 714ZM182 714Q160 714 146 728T131 765Q131 787
145 801T182 815Q204 815 218 801T232 765Q232 743 218 729T182 714Z" />
<glyph unicode="&#xcc;" horiz-adv-x="266" d="M89 0V656H177V0H89ZM149 696L-5 811L45 869L188 740L149 696Z" />
<glyph unicode="&#xcd;" horiz-adv-x="266" d="M89 0V656H177V0H89ZM117 696L78 740L221 869L271 811L117 696Z" />
<glyph unicode="&#xce;" horiz-adv-x="266" d="M89 0V656H177V0H89ZM22 698L-16 725L87 838H179L282 725L244 698L135 790H131L22 698Z" />
<glyph unicode="&#xcf;" horiz-adv-x="266" d="M89 0V656H177V0H89ZM236 714Q215 714 201 728T186 765Q186 787 200 801T236 815Q259 815 273 801T287 765Q287 743 273 729T236 714ZM30 714Q8 714 -6 728T-21 765Q-21 787 -7 801T30 815Q52 815 66 801T80 765Q80
743 66 729T30 714Z" />
<glyph unicode="&#xd0;" horiz-adv-x="639" d="M32 319V364L113 368H346V319H32ZM111 0V656H277Q378 656 447 619T552 508T588 330Q588 226 553 152T449 39T281 0H111ZM199 72H270Q346 72 396 102T471 190T497 330Q497 413 472 469T396 555T270 584H199V72Z" />
<glyph unicode="&#xd1;" horiz-adv-x="648" d="M89 0V656H180L412 250L483 113H487Q484 163 480 217T476 324V656H559V0H468L236 407L165 543H161Q165 493 168 441T172 336V0H89ZM403 708Q375 708 355 718T319 742T288 767T256 778Q237 778 224 762T208 713L150
717Q153 776 180 809T253 842Q281 842 301 831T338 807T368 783T400 772Q419 772 431 788T448 836L506 832Q504 773 476 741T403 708Z" />
<glyph unicode="&#xd2;" horiz-adv-x="666" d="M333 -12Q250 -12 187 29T87 148T51 330Q51 436 87 511T186 627T333 668Q416 668 479 628T578 512T614 330Q614 225 579 148T480 30T333 -12ZM333 65Q390 65 433 98T500 190T524 330Q524 411 500 469T433 559T333
591Q275 591 232 560T166 470T142 330Q142 250 165 191T232 98T333 65ZM349 696L195 811L245 869L388 740L349 696Z" />
<glyph unicode="&#xd3;" horiz-adv-x="666" d="M333 -12Q250 -12 187 29T87 148T51 330Q51 436 87 511T186 627T333 668Q416 668 479 628T578 512T614 330Q614 225 579 148T480 30T333 -12ZM333 65Q390 65 433 98T500 190T524 330Q524 411 500 469T433 559T333
591Q275 591 232 560T166 470T142 330Q142 250 165 191T232 98T333 65ZM317 696L278 740L421 869L471 811L317 696Z" />
<glyph unicode="&#xd4;" horiz-adv-x="666" d="M333 -12Q250 -12 187 29T87 148T51 330Q51 436 87 511T186 627T333 668Q416 668 479 628T578 512T614 330Q614 225 579 148T480 30T333 -12ZM333 65Q390 65 433 98T500 190T524 330Q524 411 500 469T433 559T333
591Q275 591 232 560T166 470T142 330Q142 250 165 191T232 98T333 65ZM222 698L184 725L287 838H379L482 725L444 698L335 790H331L222 698Z" />
<glyph unicode="&#xd5;" horiz-adv-x="666" d="M333 -12Q250 -12 187 29T87 148T51 330Q51 436 87 511T186 627T333 668Q416 668 479 628T578 512T614 330Q614 225 579 148T480 30T333 -12ZM333 65Q390 65 433 98T500 190T524 330Q524 411 500 469T433 559T333
591Q275 591 232 560T166 470T142 330Q142 250 165 191T232 98T333 65ZM408 708Q380 708 360 718T324 742T293 767T261 778Q242 778 229 762T213 713L155 717Q158 776 185 809T258 842Q286 842 306 831T343 807T373 783T405 772Q424 772 436 788T453 836L511 832Q509
773 481 741T408 708Z" />
<glyph unicode="&#xd6;" horiz-adv-x="666" d="M333 -12Q250 -12 187 29T87 148T51 330Q51 436 87 511T186 627T333 668Q416 668 479 628T578 512T614 330Q614 225 579 148T480 30T333 -12ZM333 65Q390 65 433 98T500 190T524 330Q524 411 500 469T433 559T333
591Q275 591 232 560T166 470T142 330Q142 250 165 191T232 98T333 65ZM436 714Q415 714 401 728T386 765Q386 787 400 801T436 815Q459 815 473 801T487 765Q487 743 473 729T436 714ZM230 714Q208 714 194 728T179 765Q179 787 193 801T230 815Q252 815 266 801T280
765Q280 743 266 729T230 714Z" />
<glyph unicode="&#xd7;" horiz-adv-x="499" d="M96 125L50 172L204 330L50 487L96 534L250 376L403 534L449 487L296 330L449 172L403 125L250 284L96 125Z" />
<glyph unicode="&#xd8;" horiz-adv-x="666" d="M98 -30L49 6L574 686L622 650L98 -30ZM335 -12Q252 -12 189 29T90 148T54 330Q54 436 89 511T188 627T335 668Q418 668 481 628T581 512T617 330Q617 225 581 148T482 30T335 -12ZM335 65Q393 65 436 98T502 190T526
330Q526 411 503 469T436 559T335 591Q278 591 235 560T168 470T144 330Q144 250 168 191T235 98T335 65Z" />
<glyph unicode="&#xd9;" horiz-adv-x="647" d="M324 -12Q272 -12 229 3T153 51T104 139T86 273V656H174V270Q174 192 194 148T247 84T324 65Q367 65 401 84T456 147T476 270V656H561V273Q561 194 543 140T493 52T418 3T324 -12ZM339 696L185 811L235 869L378 740L339
696Z" />
<glyph unicode="&#xda;" horiz-adv-x="647" d="M324 -12Q272 -12 229 3T153 51T104 139T86 273V656H174V270Q174 192 194 148T247 84T324 65Q367 65 401 84T456 147T476 270V656H561V273Q561 194 543 140T493 52T418 3T324 -12ZM307 696L268 740L411 869L461 811L307
696Z" />
<glyph unicode="&#xdb;" horiz-adv-x="647" d="M324 -12Q272 -12 229 3T153 51T104 139T86 273V656H174V270Q174 192 194 148T247 84T324 65Q367 65 401 84T456 147T476 270V656H561V273Q561 194 543 140T493 52T418 3T324 -12ZM212 698L174 725L277 838H369L472
725L434 698L325 790H321L212 698Z" />
<glyph unicode="&#xdc;" horiz-adv-x="647" d="M324 -12Q272 -12 229 3T153 51T104 139T86 273V656H174V270Q174 192 194 148T247 84T324 65Q367 65 401 84T456 147T476 270V656H561V273Q561 194 543 140T493 52T418 3T324 -12ZM426 714Q405 714 391 728T376 765Q376
787 390 801T426 815Q449 815 463 801T477 765Q477 743 463 729T426 714ZM220 714Q198 714 184 728T169 765Q169 787 183 801T220 815Q242 815 256 801T270 765Q270 743 256 729T220 714Z" />
<glyph unicode="&#xdd;" horiz-adv-x="479" d="M196 0V253L-2 656H92L175 473Q191 437 206 402T238 330H242Q259 367 275 402T307 473L390 656H481L284 253V0H196ZM224 696L185 740L328 869L378 811L224 696Z" />
<glyph unicode="&#xde;" horiz-adv-x="586" d="M89 0V656H177V546H293Q365 546 420 528T505 467T536 352Q536 283 505 238T419 170T293 148H177V0H89ZM177 219H282Q367 219 407 251T448 352Q448 422 407 448T282 475H177V219Z" />
<glyph unicode="&#xdf;" horiz-adv-x="580" d="M390 -12Q348 -12 314 1T248 37L282 98Q309 76 334 66T387 55Q428 55 449 79T470 133Q470 161 456 180T419 212T372 238T325 266T288 305T274 363Q274 397 287 421T317 466T348 510T361 565Q361 602 340 626T278
651Q226 651 197 613T167 498V0H81V513Q81 576 104 623T171 696T280 722Q333 722 370 702T426 648T446 574Q446 537 432 510T401 462T370 420T356 373Q356 350 370 334T406 306T453 281T500 250T537 206T551 138Q551 95 532 62T476 8T390 -12Z" />
<glyph unicode="&#xe0;" horiz-adv-x="506" d="M194 -12Q153 -12 121 4T70 52T51 127Q51 206 122 249T348 308Q348 339 340 366T310 411T250 428Q208 428 172 412T106 376L72 435Q95 450 125 465T190 489T264 499Q324 499 362 474T417 404T435 297V0H364L356 58H354Q319
29 279 9T194 -12ZM219 58Q254 58 284 74T348 120V252Q269 242 223 226T156 187T136 133Q136 93 160 76T219 58ZM284 573L126 726L186 784L329 616L284 573Z" />
<glyph unicode="&#xe1;" horiz-adv-x="506" d="M194 -12Q153 -12 121 4T70 52T51 127Q51 206 122 249T348 308Q348 339 340 366T310 411T250 428Q208 428 172 412T106 376L72 435Q95 450 125 465T190 489T264 499Q324 499 362 474T417 404T435 297V0H364L356 58H354Q319
29 279 9T194 -12ZM219 58Q254 58 284 74T348 120V252Q269 242 223 226T156 187T136 133Q136 93 160 76T219 58ZM260 573L215 616L358 784L418 726L260 573Z" />
<glyph unicode="&#xe2;" horiz-adv-x="506" d="M194 -12Q153 -12 121 4T70 52T51 127Q51 206 122 249T348 308Q348 339 340 366T310 411T250 428Q208 428 172 412T106 376L72 435Q95 450 125 465T190 489T264 499Q324 499 362 474T417 404T435 297V0H364L356 58H354Q319
29 279 9T194 -12ZM219 58Q254 58 284 74T348 120V252Q269 242 223 226T156 187T136 133Q136 93 160 76T219 58ZM152 568L115 601L228 740H316L429 601L392 568L274 679H270L152 568Z" />
<glyph unicode="&#xe3;" horiz-adv-x="506" d="M194 -12Q153 -12 121 4T70 52T51 127Q51 206 122 249T348 308Q348 339 340 366T310 411T250 428Q208 428 172 412T106 376L72 435Q95 450 125 465T190 489T264 499Q324 499 362 474T417 404T435 297V0H364L356 58H354Q319
29 279 9T194 -12ZM219 58Q254 58 284 74T348 120V252Q269 242 223 226T156 187T136 133Q136 93 160 76T219 58ZM344 577Q318 577 298 589T263 618T233 646T201 659Q180 659 169 638T156 582L98 586Q99 626 110 656T143 704T201 722Q227 722 246 710T281 681T311
652T343 640Q365 640 376 661T388 717L446 713Q445 674 434 643T401 595T344 577Z" />
<glyph unicode="&#xe4;" horiz-adv-x="506" d="M194 -12Q153 -12 121 4T70 52T51 127Q51 206 122 249T348 308Q348 339 340 366T310 411T250 428Q208 428 172 412T106 376L72 435Q95 450 125 465T190 489T264 499Q324 499 362 474T417 404T435 297V0H364L356 58H354Q319
29 279 9T194 -12ZM219 58Q254 58 284 74T348 120V252Q269 242 223 226T156 187T136 133Q136 93 160 76T219 58ZM369 586Q347 586 333 601T318 637Q318 659 332 673T369 688Q392 688 406 674T420 637Q420 616 406 601T369 586ZM175 586Q153 586 139 601T124 637Q124
659 138 673T175 688Q197 688 211 674T226 637Q226 616 212 601T175 586Z" />
<glyph unicode="&#xe5;" horiz-adv-x="506" d="M194 -12Q153 -12 121 4T70 52T51 127Q51 206 122 249T348 308Q348 339 340 366T310 411T250 428Q208 428 172 412T106 376L72 435Q95 450 125 465T190 489T264 499Q324 499 362 474T417 404T435 297V0H364L356 58H354Q319
29 279 9T194 -12ZM219 58Q254 58 284 74T348 120V252Q269 242 223 226T156 187T136 133Q136 93 160 76T219 58ZM272 555Q221 555 191 583T161 654Q161 696 191 724T272 752Q324 752 353 724T383 654Q383 611 354 583T272 555ZM272 593Q296 593 312 609T328 654Q328
681 312 697T272 714Q249 714 233 698T216 654Q216 626 232 610T272 593Z" />
<glyph unicode="&#xe6;" horiz-adv-x="785" d="M200 -12Q159 -12 127 4T77 52T58 126Q58 206 128 249T350 309Q350 339 342 366T313 411T252 428Q214 428 178 412T112 376L78 435Q101 450 130 465T193 489T263 499Q317 499 352 472T402 398Q431 445 471 472T561
499Q621 499 663 470T726 390T748 268Q748 255 747 243T744 222H431Q433 172 453 136T506 79T580 58Q615 58 642 69T697 98L728 39Q696 18 657 3T569 -12Q529 -12 498 0T442 33T398 78Q349 34 298 11T200 -12ZM226 58Q259 58 298 77T368 130Q361 149 356 175T350
228V252Q237 238 190 209T142 133Q142 93 166 76T226 58ZM431 279H671Q671 352 643 391T559 430Q526 430 499 412T453 360T431 279Z" />
<glyph unicode="&#xe7;" horiz-adv-x="456" d="M274 -12Q209 -12 158 18T76 105T45 243Q45 324 78 381T164 469T281 499Q329 499 363 482T423 442L379 385Q358 404 336 415T285 427Q241 427 208 404T155 340T135 243Q135 188 153 147T205 83T282 60Q315 60 344
74T395 108L432 50Q399 20 359 4T274 -12ZM184 -227L176 -185Q238 -181 261 -170T284 -136Q284 -117 268 -106T207 -89L251 3H307L278 -64Q313 -71 332 -87T351 -135Q351 -179 308 -201T184 -227Z" />
<glyph unicode="&#xe8;" horiz-adv-x="497" d="M279 -12Q214 -12 161 18T77 106T45 243Q45 322 76 379T158 468T265 499Q327 499 371 471T437 391T460 270Q460 257 459 244T456 222H113L112 284H384Q384 355 354 392T266 430Q232 430 200 411T148 350T127 243Q127
180 149 139T209 78T290 57Q325 57 354 67T410 95L441 39Q409 18 369 3T279 -12ZM280 573L122 726L182 784L325 616L280 573Z" />
<glyph unicode="&#xe9;" horiz-adv-x="497" d="M279 -12Q214 -12 161 18T77 106T45 243Q45 322 76 379T158 468T265 499Q327 499 371 471T437 391T460 270Q460 257 459 244T456 222H113L112 284H384Q384 355 354 392T266 430Q232 430 200 411T148 350T127 243Q127
180 149 139T209 78T290 57Q325 57 354 67T410 95L441 39Q409 18 369 3T279 -12ZM256 573L211 616L354 784L414 726L256 573Z" />
<glyph unicode="&#xea;" horiz-adv-x="497" d="M279 -12Q214 -12 161 18T77 106T45 243Q45 322 76 379T158 468T265 499Q327 499 371 471T437 391T460 270Q460 257 459 244T456 222H113L112 284H384Q384 355 354 392T266 430Q232 430 200 411T148 350T127 243Q127
180 149 139T209 78T290 57Q325 57 354 67T410 95L441 39Q409 18 369 3T279 -12ZM148 568L111 601L224 740H312L425 601L388 568L270 679H266L148 568Z" />
<glyph unicode="&#xeb;" horiz-adv-x="497" d="M279 -12Q214 -12 161 18T77 106T45 243Q45 322 76 379T158 468T265 499Q327 499 371 471T437 391T460 270Q460 257 459 244T456 222H113L112 284H384Q384 355 354 392T266 430Q232 430 200 411T148 350T127 243Q127
180 149 139T209 78T290 57Q325 57 354 67T410 95L441 39Q409 18 369 3T279 -12ZM365 586Q343 586 329 601T314 637Q314 659 328 673T365 688Q388 688 402 674T416 637Q416 616 402 601T365 586ZM171 586Q149 586 135 601T120 637Q120 659 134 673T171 688Q193
688 207 674T222 637Q222 616 208 601T171 586Z" />
<glyph unicode="&#xec;" horiz-adv-x="248" d="M81 0V487H168V0H81ZM137 573L-21 726L39 784L182 616L137 573Z" />
<glyph unicode="&#xed;" horiz-adv-x="248" d="M81 0V487H168V0H81ZM113 573L68 616L211 784L271 726L113 573Z" />
<glyph unicode="&#xee;" horiz-adv-x="248" d="M81 0V487H168V0H81ZM5 568L-32 601L81 740H169L282 601L245 568L127 679H123L5 568Z" />
<glyph unicode="&#xef;" horiz-adv-x="248" d="M81 0V487H168V0H81ZM222 586Q200 586 186 601T171 637Q171 659 185 673T222 688Q245 688 259 674T273 637Q273 616 259 601T222 586ZM28 586Q6 586 -8 601T-23 637Q-23 659 -9 673T28 688Q50 688 64 674T79 637Q79
616 65 601T28 586Z" />
<glyph unicode="&#xf0;" horiz-adv-x="546" d="M269 -12Q212 -12 163 16T83 97T52 223Q52 291 79 341T153 419T258 447Q302 447 341 426T406 359L407 302Q374 349 340 364T272 380Q228 380 197 360T150 305T134 223Q134 173 153 137T203 80T272 60Q315 60 344
84T388 152T403 254Q403 342 384 406T329 519T244 605T135 676L174 731Q234 699 290 658T390 560T460 429T486 258Q486 178 459 117T384 22T269 -12ZM144 498L119 541L454 713L479 670L144 498Z" />
<glyph unicode="&#xf1;" horiz-adv-x="548" d="M81 0V487H152L160 417H162Q197 452 236 475T325 499Q403 499 438 450T474 308V0H387V297Q387 364 366 394T298 424Q261 424 233 406T168 351V0H81ZM367 577Q341 577 321 589T286 618T256 646T224 659Q203 659 192
638T179 582L121 586Q122 626 133 656T166 704T224 722Q250 722 269 710T304 681T334 652T366 640Q388 640 399 661T411 717L469 713Q468 674 457 643T424 595T367 577Z" />
<glyph unicode="&#xf2;" horiz-adv-x="543" d="M272 -12Q212 -12 160 18T77 105T45 243Q45 324 76 381T160 469T272 499Q331 499 382 469T466 382T498 243Q498 162 466 105T383 18T272 -12ZM272 60Q313 60 344 83T391 147T408 243Q408 298 392 339T344 404T272
427Q231 427 200 404T152 340T135 243Q135 188 152 147T200 83T272 60ZM284 573L126 726L186 784L329 616L284 573Z" />
<glyph unicode="&#xf3;" horiz-adv-x="543" d="M272 -12Q212 -12 160 18T77 105T45 243Q45 324 76 381T160 469T272 499Q331 499 382 469T466 382T498 243Q498 162 466 105T383 18T272 -12ZM272 60Q313 60 344 83T391 147T408 243Q408 298 392 339T344 404T272
427Q231 427 200 404T152 340T135 243Q135 188 152 147T200 83T272 60ZM260 573L215 616L358 784L418 726L260 573Z" />
<glyph unicode="&#xf4;" horiz-adv-x="543" d="M272 -12Q212 -12 160 18T77 105T45 243Q45 324 76 381T160 469T272 499Q331 499 382 469T466 382T498 243Q498 162 466 105T383 18T272 -12ZM272 60Q313 60 344 83T391 147T408 243Q408 298 392 339T344 404T272
427Q231 427 200 404T152 340T135 243Q135 188 152 147T200 83T272 60ZM152 568L115 601L228 740H316L429 601L392 568L274 679H270L152 568Z" />
<glyph unicode="&#xf5;" horiz-adv-x="543" d="M272 -12Q212 -12 160 18T77 105T45 243Q45 324 76 381T160 469T272 499Q331 499 382 469T466 382T498 243Q498 162 466 105T383 18T272 -12ZM272 60Q313 60 344 83T391 147T408 243Q408 298 392 339T344 404T272
427Q231 427 200 404T152 340T135 243Q135 188 152 147T200 83T272 60ZM344 577Q318 577 298 589T263 618T233 646T201 659Q180 659 169 638T156 582L98 586Q99 626 110 656T143 704T201 722Q227 722 246 710T281 681T311 652T343 640Q365 640 376 661T388 717L446
713Q445 674 434 643T401 595T344 577Z" />
<glyph unicode="&#xf6;" horiz-adv-x="543" d="M272 -12Q212 -12 160 18T77 105T45 243Q45 324 76 381T160 469T272 499Q331 499 382 469T466 382T498 243Q498 162 466 105T383 18T272 -12ZM272 60Q313 60 344 83T391 147T408 243Q408 298 392 339T344 404T272
427Q231 427 200 404T152 340T135 243Q135 188 152 147T200 83T272 60ZM369 586Q347 586 333 601T318 637Q318 659 332 673T369 688Q392 688 406 674T420 637Q420 616 406 601T369 586ZM175 586Q153 586 139 601T124 637Q124 659 138 673T175 688Q197 688 211 674T226
637Q226 616 212 601T175 586Z" />
<glyph unicode="&#xf7;" horiz-adv-x="499" d="M34 298V362H465V298H34ZM250 94Q226 94 210 110T194 150Q194 174 210 189T250 205Q274 205 290 190T306 150Q306 126 290 110T250 94ZM250 454Q226 454 210 470T194 510Q194 534 210 549T250 565Q274 565 290 550T306
510Q306 486 290 470T250 454Z" />
<glyph unicode="&#xf8;" horiz-adv-x="543" d="M84 -24L46 6L459 510L497 480L84 -24ZM272 -12Q212 -12 160 18T77 105T45 243Q45 324 76 381T160 469T272 499Q331 499 382 469T466 382T498 243Q498 162 466 105T383 18T272 -12ZM272 58Q313 58 345 80T394 144T412
239Q412 298 395 340T345 406T272 429Q231 429 199 406T149 342T131 247Q131 188 149 146T198 81T272 58Z" />
<glyph unicode="&#xf9;" horiz-adv-x="546" d="M223 -12Q147 -12 111 37T74 179V487H161V190Q161 123 182 93T251 63Q287 63 316 82T378 143V487H465V0H393L386 76H383Q350 36 312 12T223 -12ZM289 573L131 726L191 784L334 616L289 573Z" />
<glyph unicode="&#xfa;" horiz-adv-x="546" d="M223 -12Q147 -12 111 37T74 179V487H161V190Q161 123 182 93T251 63Q287 63 316 82T378 143V487H465V0H393L386 76H383Q350 36 312 12T223 -12ZM265 573L220 616L363 784L423 726L265 573Z" />
<glyph unicode="&#xfb;" horiz-adv-x="546" d="M223 -12Q147 -12 111 37T74 179V487H161V190Q161 123 182 93T251 63Q287 63 316 82T378 143V487H465V0H393L386 76H383Q350 36 312 12T223 -12ZM157 568L120 601L233 740H321L434 601L397 568L279 679H275L157 568Z" />
<glyph unicode="&#xfc;" horiz-adv-x="546" d="M223 -12Q147 -12 111 37T74 179V487H161V190Q161 123 182 93T251 63Q287 63 316 82T378 143V487H465V0H393L386 76H383Q350 36 312 12T223 -12ZM374 586Q352 586 338 601T323 637Q323 659 337 673T374 688Q397 688
411 674T425 637Q425 616 411 601T374 586ZM180 586Q158 586 144 601T129 637Q129 659 143 673T180 688Q202 688 216 674T231 637Q231 616 217 601T180 586Z" />
<glyph unicode="&#xfd;" horiz-adv-x="471" d="M92 -208Q75 -208 61 -205T34 -198L51 -130Q59 -132 69 -134T88 -137Q129 -137 155 -108T196 -35L207 0L12 487H101L198 222Q210 190 222 155T245 84H249Q260 118 270 153T290 222L374 487H459L277 -38Q259 -87 235
-125T177 -186T92 -208ZM234 573L189 616L332 784L392 726L234 573Z" />
<glyph unicode="&#xfe;" horiz-adv-x="556" d="M81 -204V712H168V519L166 437Q198 463 235 481T312 499Q376 499 420 469T486 382T509 251Q509 168 480 109T402 19T299 -12Q264 -12 232 2T166 42L168 -40V-204H81ZM283 61Q322 61 353 83T402 148T420 250Q420 303
407 342T367 404T294 426Q265 426 234 410T168 361V110Q200 83 230 72T283 61Z" />
<glyph unicode="&#xff;" horiz-adv-x="471" d="M92 -208Q75 -208 61 -205T34 -198L51 -130Q59 -132 69 -134T88 -137Q129 -137 155 -108T196 -35L207 0L12 487H101L198 222Q210 190 222 155T245 84H249Q260 118 270 153T290 222L374 487H459L277 -38Q259 -87 235
-125T177 -186T92 -208ZM343 586Q321 586 307 601T292 637Q292 659 306 673T343 688Q366 688 380 674T394 637Q394 616 380 601T343 586ZM149 586Q127 586 113 601T98 637Q98 659 112 673T149 688Q171 688 185 674T200 637Q200 616 186 601T149 586Z" />
<glyph unicode="&#x2013;" horiz-adv-x="480" d="M42 222V282H438V222H42Z" />
<glyph unicode="&#x2014;" horiz-adv-x="800" d="M42 222V282H758V222H42Z" />
<glyph unicode="&#x2018;" horiz-adv-x="253" d="M122 422Q91 422 74 446T56 515Q56 575 84 620T166 695L190 654Q152 630 133 601T113 529L124 461L82 513Q92 522 101 526T122 531Q143 531 159 518T176 479Q176 452 161 437T122 422Z" />
<glyph unicode="&#x2019;" horiz-adv-x="253" d="M87 425L63 466Q102 490 121 519T140 591L129 659L171 607Q162 598 153 594T131 589Q110 589 93 603T76 641Q76 668 91 683T131 698Q163 698 179 674T196 605Q196 545 169 501T87 425Z" />
<glyph unicode="&#x201a;" horiz-adv-x="253" d="M87 -147L63 -106Q102 -82 121 -53T140 19L129 87L171 35Q162 26 153 22T131 17Q110 17 93 31T76 69Q76 96 91 111T131 126Q163 126 179 102T196 33Q196 -27 169 -71T87 -147Z" />
<glyph unicode="&#x201c;" horiz-adv-x="434" d="M122 422Q91 422 74 446T56 515Q56 575 84 620T166 695L190 654Q152 630 133 601T113 529L124 461L82 513Q92 522 101 526T122 531Q143 531 159 518T176 479Q176 452 161 437T122 422ZM303 422Q272 422 255 446T237
515Q237 575 265 620T347 695L371 654Q333 630 314 601T294 529L305 461L263 513Q273 522 282 526T303 531Q324 531 340 518T357 479Q357 452 342 437T303 422Z" />
<glyph unicode="&#x201d;" horiz-adv-x="434" d="M87 425L63 466Q102 490 121 519T140 591L129 659L171 607Q162 598 153 594T131 589Q110 589 93 603T76 641Q76 668 91 683T131 698Q163 698 179 674T196 605Q196 545 169 501T87 425ZM268 425L244 466Q283 490
302 519T321 591L310 659L352 607Q343 598 334 594T312 589Q291 589 274 603T257 641Q257 668 272 683T312 698Q344 698 360 674T377 605Q377 545 350 501T268 425Z" />
<glyph unicode="&#x201e;" horiz-adv-x="434" d="M87 -147L63 -106Q102 -82 121 -53T140 19L129 87L171 35Q162 26 153 22T131 17Q110 17 93 31T76 69Q76 96 91 111T131 126Q163 126 179 102T196 33Q196 -27 169 -71T87 -147ZM268 -147L244 -106Q283 -82 302 -53T321
19L310 87L352 35Q343 26 334 22T312 17Q291 17 274 31T257 69Q257 96 272 111T312 126Q344 126 360 102T377 33Q377 -27 350 -71T268 -147Z" />
<glyph unicode="&#x2022;" horiz-adv-x="307" d="M154 141Q123 141 98 156T56 199T40 263Q40 299 56 326T97 369T154 385Q184 385 210 370T251 327T267 263Q267 227 252 200T210 157T154 141Z" />
<glyph unicode="&#x2039;" horiz-adv-x="272" d="M182 65L45 220V284L182 439L218 408L101 252L218 95L182 65Z" />
<glyph unicode="&#x203a;" horiz-adv-x="272" d="M91 65L54 95L172 252L54 408L91 439L227 284V220L91 65Z" />
</font>
</defs>
</svg>
